ply
format ascii 1.0
comment written by method MeshWithData::saveAsPLY
element vertex 513
property float x
property float y
property float z
element face 1022
property list uchar int vertex_index
end_header
-0.66272819 0.22069639 0.77950931
0.66850394 -0.098565966 0.81604832
-0.19256055 -0.31158423 1.3818099
0.60649264 -0.0050272569 -0.98546791
-0.67295253 -0.50284553 -0.31171262
-0.59632421 -0.52633095 0.61975425
-0.26284635 0.93518561 -0.21343043
0.34313828 -0.2573303 1.3050447
-0.31647065 -0.0082686283 -1.3801358
-0.17676863 -0.52031046 1.2431755
0.59596217 0.60709888 -0.42590916
0.66850394 0.097290546 0.81604832
-0.74201167 0.23187394 0.4456107
-0.22505784 -0.62539679 -1.0955951
0.49216858 0.26238826 1.1199836
-0.77919281 0.22406717 -0.098956838
0.28422612 0.85452747 -0.57232845
0.21820895 -0.58673245 -1.1512443
0.18867502 -0.1794413 1.4371444
-0.25252193 0.26651374 1.3713616
-0.12743016 0.90017867 0.61656153
0.58461612 0.28105801 -0.93713862
-0.50137794 -0.72390205 0.45036322
0.28501755 -0.9033283 -0.3819564
-0.72580409 -0.11531706 -0.61150992
-0.32583988 0.90699083 0.17201903
-0.39219055 -0.61736631 -0.92892855
0.040107269 1.0008564 -0.013745363
0.14248718 0.90798479 -0.57961106
0.43495268 0.80358142 0.37312311
-0.47487611 -0.80598557 -0.11259929
-0.38906237 0.84305751 0.3552714
-0.51838523 -0.25538185 -1.0794842
0.51849407 0.75676906 0.15298715
0.33432776 -0.39565334 -1.2306356
0.17736611 -0.52031046 1.2431755
0.50438464 0.69417483 -0.53324568
-0.014587064 -0.41961816 -1.3675953
-0.21289524 -0.89357579 -0.55104578
0.47140104 -0.44352949 1.0186311
-0.39219055 0.61609089 -0.92892855
0.6133824 -0.40687042 0.75542289
-0.51727343 -0.11163443 -1.1370044
-0.23939764 0.40741751 1.2968056
-0.54233378 0.076951869 -1.1001537
-0.49645343 -0.21738385 1.1332266
-0.10614522 0.16964453 1.4670236
0.18580601 -0.32975841 1.3768578
-0.44777521 0.014875126 1.2464548
0.0017479373 0.91932863 -0.5950942
-0.30349126 0.68813175 0.93248177
-0.69012272 -0.42688069 -0.42595869
0.42738685 -0.28404778 -1.2015483
0.39278802 -0.61736631 0.92892855
-0.37855193 -0.76958215 0.65505648
-0.11500032 -0.76514649 0.94668877
-0.34230274 0.90541083 -0.058028527
-0.78573048 -0.19202672 -0.049855307
-0.65093225 -0.57093096 0.19904593
0.51082671 0.52370352 -0.85173595
-0.23763935 0.14208882 -1.4207778
-0.4343552 -0.80485684 0.37312311
0.18580601 0.32848299 -1.3768578
0.72513759 -0.039323393 0.64237779
-0.3765538 -0.11251236 -1.3167115
0.6133824 0.40559503 -0.75542289
-0.59536469 -0.6083743 0.42590916
0.26359528 0.9172675 0.34782609
-0.35213512 0.86836714 -0.35478961
-0.65834469 -0.56066936 -0.17998829
-0.48082095 -0.63122499 -0.74523288
0.24663448 -0.87548596 -0.57318377
0.18630806 0.2964361 1.391832
0.23999509 0.40741751 -1.2968056
-0.15375492 0.68122393 -1.065639
0.023921268 0.82327414 0.85324788
-0.0011504603 0.91932863 0.5950942
-0.66384256 -0.56177431 -0.020239912
-0.11353083 -0.32956907 -1.4037349
0.12764493 0.98288727 0.16792564
-0.78211391 -0.13369265 -0.25542337
0.077749833 -0.90665758 0.62601799
0.77986282 0.22426678 0.096342966
-0.80089664 -0.0098012853 -0.074640989
-0.66272819 0.22069639 -0.77950943
0.47547358 -0.80598557 -0.11259929
0.077860758 -0.98614025 0.22560468
0.33577186 -0.91155279 -0.017966626
0.32643735 0.90699083 -0.17201903
0.48141843 -0.63122499 -0.74523288
-0.22505784 0.62412137 -1.0955951
0.037596524 -0.2489803 -1.4564977
0.58461612 0.28105801 0.93713862
0.24663448 0.87421054 0.57318383
-0.14361525 -0.8599568 0.72390616
-0.33373028 0.39437792 1.2306356
-0.014024608 -0.099232666 -1.4959599
0.39182821 0.84176201 -0.35427439
-0.10614522 0.16964453 -1.4670236
-0.49645343 0.21610843 -1.1332266
-0.66790646 0.097290546 -0.81604832
0.21820895 0.58545703 1.1512443
0.51082671 -0.52497894 -0.85173595
0.76236314 -0.30496925 -0.094095401
0.22565532 -0.62539679 1.0955951
-0.01243723 -0.92095596 0.59270215
0.35517886 0.50534731 1.1168396
-0.30349126 0.68813175 -0.93248177
0.29123515 -0.92921305 -0.16647261
-0.69133091 -0.30025819 0.61208284
-0.32583988 -0.90826625 -0.17201903
-0.39219055 -0.61736631 0.92892855
0.12707026 -0.45214507 -1.3211107
0.13652453 0.97737807 -0.19958241
0.77061749 -0.21464723 -0.26223648
-0.23763935 -0.14336424 1.4207778
-0.35458139 0.50534731 1.1168396
0.22640634 0.80964321 0.77949953
-0.69133091 -0.30025819 -0.61208284
0.12236123 0.66422004 -1.1003522
-0.26284635 -0.93646103 0.21343043
0.13652453 -0.97865349 -0.19958241
-0.22505784 -0.62539679 1.0955951
-0.75586379 0.27190736 -0.28108603
-0.33373028 -0.39565334 -1.2306356
-0.58401865 -0.28233343 -0.93713862
0.58012486 -0.68350714 -0.16812518
0.23999512 -0.40869293 -1.2968056
0.37914941 -0.76958215 0.65505648
0.0069605052 -0.87761933 -0.72837555
-0.72454011 0.038047973 -0.64237779
-0.58975685 -0.15625978 0.98923564
0.59692168 0.52505553 -0.61975425
-0.4343552 0.80358142 -0.37312311
-0.74835992 -0.14292467 0.49339706
-0.73815829 0.38881579 0.07723438
0.66332567 0.22069639 -0.77950943
0.22640634 -0.81091863 -0.77949953
0.76677567 -0.23610877 0.26820526
0.23999512 0.40741751 1.2968056
0.50197542 -0.72390205 0.45036322
-0.33373028 -0.39565334 1.2306356
-0.58283937 -0.6823287 0.14470649
0.046658792 -0.92944765 -0.55873734
0.64367485 -0.24938589 -0.81497437
-0.48082095 -0.63122499 0.74523294
0.66850394 -0.098565958 -0.81604832
0.17150636 -0.17546204 -1.4443476
-0.57952732 -0.68350714 -0.16812518
-0.59536469 -0.6083743 -0.42590916
0.34313828 0.25605488 -1.3050447
-0.78211391 -0.13369265 0.25542337
0.51082671 0.52370352 0.85173595
0.47140104 -0.44352949 -1.0186311
0.42225832 -0.092232615 1.2730076
0.12707026 0.45086965 1.3211107
0.12236123 -0.66549546 1.1003522
0.18006265 0.06533353 -1.4615467
0.2220604 -0.046567377 -1.4412159
-0.19890785 -0.75697303 0.91251612
-0.38532194 0.73803192 0.71317041
0.32914445 -0.12424252 -1.3583112
0.60107118 0.58633673 0.46101451
0.47344032 -0.094589181 -1.2075309
0.75012213 0.25336236 0.37914324
-0.059495747 0.98870611 0.21344322
-0.44478709 -0.089669995 1.2427565
-0.50170571 -0.42902949 -0.98176956
0.66729808 -0.52644747 0.27640873
0.7489574 0.14164925 -0.49339706
0.078643188 -0.54466611 1.2528882
0.031247284 0.42761415 -1.3590728
0.67174602 -0.46251532 -0.44234753
-0.48082095 0.62994957 0.74523288
-0.007682506 0.82428092 -0.85474116
0.59035432 0.15498437 -0.98923564
-0.70899141 0.40807477 -0.34347183
0.18867502 0.17816588 -1.4371444
0.32914445 0.1229671 1.3583112
-0.79117632 0.14165777 0.11211466
-0.59632421 0.52505553 -0.61975425
-0.17872037 -0.7758106 -0.89318347
-0.26808494 -0.94437706 0.0072506992
-0.35529628 0.12615016 -1.3325282
-0.66357958 0.46343738 0.47334987
-0.066846624 -0.99997568 -0.01998019
-0.06177292 -0.73407346 -1.017436
-0.44777521 -0.016150545 -1.2464548
-0.66272819 -0.22197181 0.77950943
0.73875576 0.38881579 0.077234395
-0.72580409 0.11404164 0.61150992
-0.58401865 0.28105801 0.93713862
0.68938673 0.48868027 0.22722816
-0.38532194 -0.73930734 -0.71317041
-0.06177292 0.73279804 1.017436
-0.092729643 -0.91635203 -0.58197081
-0.50137794 0.72262663 -0.45036322
0.56045687 -0.32547185 -0.9612205
-0.66790646 -0.098565966 0.81604832
0.30408874 0.68813175 0.93248177
0.43495268 -0.80485684 0.37312311
-0.61278492 0.405595 -0.75542289
-0.35529628 -0.12742558 1.3325282
-0.72333515 -0.42045733 0.15218669
-0.42678937 0.28277236 -1.2015483
0.6491704 0.58816475 0.015599778
0.25580093 -0.80846351 0.74837255
0.72968292 0.017969543 -0.62847066
-0.19256055 0.31030881 -1.3818099
0.11413512 -0.075380817 -1.4840157
0.37914941 0.76830673 -0.65505648
0.31921789 0.056573413 -1.3780951
0.30408874 -0.68940717 -0.93248177
-0.66357958 -0.4647128 0.47334987
-0.054681189 0.26195356 -1.4475952
0.48141843 0.62994957 0.74523288
0.10655757 -0.96072251 -0.38757563
0.031247284 -0.42888957 1.3590728
-0.202409 -0.93641317 0.38084435
0.14846142 0.76060981 0.93776381
0.037596524 0.24770488 1.4564977
-0.078045711 0.54339069 1.2528882
0.093062289 0.89062834 0.66800219
-0.13592705 -0.97865349 0.19958241
-0.77423072 -0.24935825 0.099440306
0.49391046 0.75960362 -0.32299036
0.00041052917 0.63956189 1.1568246
-0.014587064 0.41834274 1.3675953
0.53190953 -0.6572184 0.5423696
-0.66357958 0.46343738 -0.47334987
-0.089053735 -0.93553013 0.51448542
-0.67295253 0.50157011 0.31171262
-0.20939097 -0.96800321 -0.07234785
0.71913838 0.40939334 -0.25990331
-0.42678937 -0.28404778 1.2015483
-0.3580561 -0.89611471 0.075152658
-0.434928 0.83461803 -0.14689256
0.69192839 0.29898277 0.61208284
-0.33373028 0.39437792 -1.2306356
-0.33895224 -0.82773697 -0.56426328
0.01109336 -0.83081436 0.84170491
-0.23939764 0.40741751 -1.2968056
0.72644651 -0.34513944 -0.37250578
0.090257324 0.69195175 1.0756576
-0.078045711 0.54339069 -1.2528882
0.2220604 0.045291957 1.4412159
0.43552548 -0.83589345 0.14689256
0.33432776 0.39437792 -1.2306356
-0.41383046 -0.24260221 -1.2366201
0.69695652 0.49473405 -0.03474886
0.47466651 -0.27252838 1.1439596
-0.12088953 -0.86199796 -0.73397624
-0.51789659 -0.75804448 0.15298715
0.53190953 0.65594298 0.5423696
0.18630806 -0.29771152 -1.391832
-0.054681189 -0.26322898 1.4475952
-0.61278492 -0.40687042 -0.75542289
0.01374774 -0.73673201 1.0205576
-0.50170571 0.42775407 0.98176956
0.17150636 0.17418662 1.4443476
0.48141843 -0.63122499 0.74523288
-0.73402542 0.23124635 -0.49368104
-0.23939764 -0.40869293 1.2968056
0.35517886 -0.50662273 1.1168396
0.45756727 0.37992057 1.0941023
-0.434928 -0.83589345 0.14689256
0.28443885 -0.24962053 -1.3553041
0.77175272 -0.094010718 0.383322
0.50197542 0.72262663 0.45036319
0.80089664 -0.027718138 0.099589601
0.56045687 -0.32547185 0.9612205
-0.54233378 -0.078227289 1.1001537
-0.061772924 0.73279804 -1.017436
0.3527326 0.86836714 0.35478961
0.3527326 -0.86964256 0.35478961
0.7917738 -0.14293319 -0.11211466
0.16841409 -0.77422607 0.90425974
0.42711288 0.05611157 -1.271163
-0.11353083 0.32829365 1.4037349
-0.10614522 -0.17091995 -1.4670236
-0.090254612 0.90037423 -0.63683605
-0.063515685 -0.8365804 0.82075787
-0.49331298 0.75960362 0.32299036
-0.35458139 -0.50662273 -1.1168396
-0.22505784 0.62412137 1.0955951
0.00041052917 -0.64083731 -1.1568246
-0.66272819 -0.22197181 -0.77950931
0.50438464 -0.69545025 -0.53324568
0.58343685 -0.6823287 0.14470649
0.28443885 0.24834511 1.3553041
0.34290022 0.90541083 0.058028527
-0.25520346 -0.80846351 0.74837255
-0.31647065 0.0069932076 1.3801358
0.51082671 -0.52497894 0.85173595
-0.4569698 0.37992057 1.0941023
-0.091444731 -0.40831098 1.3614428
0.45756727 0.37992057 -1.0941023
0.7748282 0.24808283 -0.099440306
-0.72253066 0.35453671 0.37347248
0.50230318 0.42775407 0.98176956
-0.04889866 -0.98742741 0.25313735
0.48205075 0.23733142 -1.1496272
0.70489097 -0.15910169 -0.67726195
0.054008104 -1.0008564 4.3134483e-09
0.6907202 0.42560527 -0.42595869
-0.25520346 0.80718809 0.74837255
-0.51838523 0.25410643 1.0794842
-0.12388007 0.81955975 -0.83069706
0.61495346 0.61179847 0.30203128
0.02196308 -0.06703078 1.501121
0.66332567 0.22069639 0.77950931
0.50230318 0.42775404 -0.98176956
0.79814398 0.017266473 -0.14789243
-0.12419893 0.6588527 1.1063542
-0.77002001 0.21337181 0.26223648
-0.59536469 0.60709888 0.42590916
-0.33895224 0.82646155 0.56426328
0.28501755 0.90205288 -0.3819564
0.24663448 -0.87548596 0.57318383
-0.29930463 0.26011381 -1.337171
0.78271139 0.13241723 0.25542337
-0.3765538 0.11123694 1.3167115
-0.13956073 0.96226072 0.32101429
-0.73815829 -0.39009121 -0.07723438
-0.73666656 -0.24171181 -0.46641979
0.54293126 0.076951861 -1.1001537
-0.35458139 -0.50662273 1.1168396
-0.72333515 0.41918191 -0.15218669
-0.5598594 -0.32547185 0.9612205
-0.35213512 -0.86964256 0.35478961
0.31877002 -0.90922016 0.21308696
-0.77175206 -0.069362618 -0.39388692
-0.078045711 -0.54466611 -1.2528882
0.12537982 0.8559444 -0.74455112
-0.61667436 -0.00077744952 -0.96029937
-0.12419893 -0.66012812 -1.1063542
-0.61278492 -0.40687042 0.75542289
0.69192839 -0.30025819 -0.61208284
0.48141843 0.62994957 -0.74523288
0.18006265 -0.06660895 1.4615467
-0.24603701 -0.87548596 0.57318383
-0.58283937 0.68105328 -0.14470649
0.49391046 -0.76087904 -0.32299039
0.49705091 -0.21738385 -1.1332266
-0.12783359 0.027043764 -1.4838628
-0.12419891 -0.66012812 1.1063542
-0.057338666 0.83808857 0.81619418
0.30408874 -0.68940717 0.93248177
0.58764791 0.67817318 0.08194568
0.69192839 -0.30025816 0.61208284
0.11730822 0.95174056 -0.41475153
-0.72454011 -0.039323393 0.64237779
0.074997142 -0.25618571 1.4464762
-0.20387602 0.96801353 0.079148434
0.59692168 0.52505553 0.61975425
-0.26269096 -0.91812694 -0.34649748
-0.79857087 -0.041627258 0.12631173
-0.067067519 0.9979493 -0.061484322
-0.19002713 0.93524289 -0.40567076
0.74900323 0.26980945 -0.356861
-0.77115524 0.092735298 -0.383322
0.090257324 -0.69322717 -1.0756576
-0.58655578 0.15194042 0.99728662
0.00041053112 -0.64083731 1.1568246
0.66850394 0.097290546 -0.81604832
0.14846142 -0.76188523 -0.93776381
-0.14754023 -0.94747376 -0.40579396
0.35517886 0.50534731 -1.1168396
-0.69133091 0.29898277 -0.61208284
0.47547358 0.80471015 -0.11259929
-0.47080356 0.44225407 -1.0186311
0.30408874 0.68813175 -0.93248177
-0.23023026 0.162302 1.4189398
0.21037176 0.9644258 -0.10308737
0.66332567 -0.22197181 0.77950931
-0.53131205 -0.65721846 0.5423696
0.64927328 0.56748539 -0.230974
-0.58975685 0.15498435 -0.98923564
0.72640157 0.11404163 0.61150992
0.73875576 -0.39009121 0.077234387
0.39278799 -0.61736631 -0.92892855
0.13722812 -0.85121906 0.75146711
0.6133824 0.405595 0.75542289
-0.052736092 0.96752411 -0.37308082
-0.10614522 -0.17091995 1.4670236
0.59035432 0.15498435 0.98923564
-0.53131205 0.65594304 -0.5423696
-0.036444992 -0.96144831 -0.41580302
0.37914941 -0.76958215 -0.65505648
-0.47080356 -0.44352949 1.0186311
-0.35458139 0.50534731 -1.1168396
0.60649264 -0.0050272569 0.98546791
0.19950533 0.75569761 -0.91251612
-0.78652126 0.11131272 -0.23877412
-0.13592705 0.97737807 -0.19958241
-0.70899141 -0.40935019 0.34347183
-0.036444996 0.96017289 0.41580302
0.6907202 0.42560527 0.42595869
0.59596217 -0.6083743 0.42590916
-0.59632421 -0.52633095 -0.61975425
-0.51022923 0.52370352 0.85173595
-0.74840575 -0.27108487 0.356861
0.79539835 0.12392993 0.0099836178
-0.4569698 -0.38119599 -1.0941023
0.23999512 -0.40869293 1.2968056
-0.24603701 0.87421054 -0.57318383
-0.036567558 -0.9955765 -0.17911878
0.078643188 -0.54466611 -1.2528882
0.77979028 -0.22534259 0.098956838
-0.29930463 -0.26138923 1.337171
0.05307572 0.97372675 0.33705732
-0.41383046 0.24132679 1.2366201
-0.59536469 0.60709888 -0.42590916
0.59692168 -0.52633095 0.61975425
-0.5598594 0.32419643 -0.9612205
0.6907202 -0.42688069 0.42595869
-0.25520346 -0.80846351 -0.74837255
-0.65093225 0.56965554 -0.19904593
-0.15438381 -0.97083628 -0.23363873
0.44448534 0.085308112 1.2443398
-0.51789659 0.75676906 -0.15298715
0.22565532 0.62412137 -1.0955951
-0.51022923 -0.52497894 0.85173601
-0.61667436 -0.00049797067 0.96029937
0.17736611 0.51903504 -1.2431755
0.17671508 -0.97803235 -2.1693531e-09
0.33432776 0.39437792 1.2306356
-0.77462226 0.052127913 0.38282767
0.11413512 0.074105397 1.4840157
-0.66384256 0.56049889 0.020239912
-0.0080211451 -0.81172729 -0.88320369
0.39278802 0.61609089 0.92892855
-0.39219055 0.61609089 0.92892855
-0.19957122 0.90662867 0.51841652
-0.19867772 -0.066931263 -1.4522427
-0.38906237 -0.84433293 -0.3552714
0.15021129 0.94456542 0.40881759
0.50156039 -0.076026477 1.1669936
-0.44478709 0.088394575 -1.2427565
-0.51022923 -0.52497894 -0.85173595
0.33432776 -0.39565334 1.2306356
0.51849407 -0.75804448 0.15298715
-0.49331298 -0.76087904 -0.32299036
-0.25252193 -0.26778916 -1.3713616
-0.50378716 0.69417483 0.53324568
-0.091444731 0.40703556 -1.3614428
-0.37855193 0.76830673 -0.65505648
-0.23023026 -0.16357742 -1.4189398
0.58715326 -0.15321584 -0.99728662
0.78271139 0.13241723 -0.25542337
-0.014024608 0.097957246 1.4959599
0.65942824 -0.56946963 -0.044292253
0.20290776 -0.96282786 0.1778447
0.074997142 0.25491029 -1.4464762
0.39182821 -0.84303743 -0.35427439
0.35517883 -0.50662273 -1.1168396
0.51995897 0.094328471 1.1382639
0.69192839 0.29898277 -0.61208284
0.77234954 0.068087198 0.39388692
0.11108943 -0.86725426 -0.72464192
0.089096121 0.75736523 -0.97044778
-0.19867772 0.065655842 1.4522427
0.078643188 0.54339069 -1.2528882
-0.26269096 0.91685152 0.34649748
0.098755769 -0.95770979 0.41231
0.67127979 -0.54476714 0.10807014
-0.17872037 0.77453518 0.89318347
-0.76834977 0.2765643 0.068894498
-0.23939764 -0.40869293 -1.2968056
-0.65834469 0.55939394 0.17998829
0.58715326 -0.15321583 0.99728662
-0.078045711 -0.54466611 1.2528882
0.43552548 0.83461803 0.14689256
0.59692168 -0.52633095 -0.61975425
-0.58655578 -0.15321584 -0.99728662
-0.48082095 0.62994957 -0.74523294
-0.17676863 -0.52031046 -1.2431755
-0.66790646 -0.098565966 -0.81604832
-0.61278492 0.405595 0.75542289
-0.66790646 0.097290546 0.81604832
-0.22580886 0.80964321 -0.77949953
0.59596217 -0.6083743 -0.42590916
0.64927328 -0.56876081 -0.23097399
0.7346229 -0.23252179 0.49368104
-0.57952732 0.68223172 0.16812518
-0.30349126 -0.68940717 -0.93248177
0.078643188 0.54339069 1.2528882
0.71234572 -0.44621617 -0.17228812
-0.12783359 -0.028319184 1.4838628
-0.69133091 0.29898277 0.61208284
0.31921789 -0.057848834 1.3780951
0.77709746 -0.047259942 -0.37251389
-0.47487611 0.80471015 0.11259929
-0.30349126 -0.68940717 0.93248177
0.20473714 0.96367973 0.14005952
0.39278799 0.61609089 -0.92892855
0.5801248 0.68223172 -0.16812518
0.74260914 -0.23314936 -0.4456107
-0.76160389 -0.27713874 -0.21939278
-0.17676863 0.51903504 -1.2431755
0.37914941 0.76830673 0.65505648
0.23513639 -0.92377365 0.38014653
-0.17676863 0.51903504 1.2431755
0.02196308 0.06575536 -1.501121
0.6133824 -0.40687045 -0.75542289
-0.51727343 0.11035901 1.1370044
0.00041053112 0.63956189 -1.1568246
-0.59632421 0.52505553 0.61975425
0.25580093 0.80718809 -0.74837255
-0.50378716 -0.69545025 -0.53324568
0.3989473 0.24887408 1.2485359
0.026888236 0.98189878 -0.28708351
-0.51022923 0.52370352 -0.85173601
3 263 347 53
3 142 58 77
3 51 324 118
3 135 469 429
3 385 14 456
3 231 469 135
3 173 507 400
3 383 357 511
3 457 136 65
3 475 512 180
3 2 295 255
3 144 337 504
3 295 217 255
3 123 15 327
3 101 106 199
3 345 159 55
3 398 415 413
3 409 2 115
3 58 142 66
3 316 305 433
3 408 103 275
3 342 287 481
3 294 306 411
3 100 477 130
3 198 479 351
3 341 429 484
3 59 65 311
3 256 399 51
3 441 200 246
3 191 306 258
3 359 233 297
3 107 90 390
3 75 194 243
3 264 426 510
3 142 77 148
3 224 356 57
3 135 15 467
3 212 137 365
3 53 293 39
3 217 295 471
3 252 265 61
3 257 240 276
3 240 257 281
3 436 93 67
3 345 9 122
3 268 308 33
3 406 366 387
3 170 471 363
3 171 462 424
3 103 408 379
3 206 276 381
3 242 172 337
3 393 83 15
3 494 290 373
3 19 46 278
3 226 313 221
3 227 220 155
3 477 474 286
3 201 84 368
3 37 78 91
3 130 261 84
3 42 64 248
3 159 122 493
3 361 17 365
3 428 309 339
3 143 195 129
3 55 159 94
3 37 476 78
3 388 287 454
3 117 93 222
3 263 35 104
3 422 111 389
3 78 476 468
3 93 117 500
3 362 505 306
3 389 234 328
3 371 421 392
3 317 88 97
3 33 472 29
3 84 100 130
3 30 435 110
3 238 204 390
3 141 234 326
3 283 167 403
3 241 445 208
3 77 58 203
3 510 14 264
3 349 41 415
3 359 297 449
3 509 70 193
3 246 87 85
3 280 307 480
3 216 143 71
3 251 38 416
3 342 126 85
3 386 180 412
3 21 311 65
3 274 200 128
3 307 74 480
3 259 428 245
3 136 21 65
3 256 286 125
3 461 292 115
3 501 274 318
3 431 199 106
3 336 213 5
3 373 113 27
3 437 419 154
3 86 300 303
3 410 436 79
3 476 37 332
3 241 208 319
3 249 205 192
3 301 175 325
3 35 404 47
3 181 186 430
3 445 499 244
3 165 396 410
3 178 490 154
3 237 382 310
3 98 208 214
3 379 465 451
3 478 400 507
3 233 249 189
3 60 208 98
3 60 98 344
3 394 353 357
3 455 34 52
3 427 190 12
3 12 298 314
3 200 441 140
3 242 337 497
3 415 41 413
3 96 91 279
3 18 7 490
3 232 223 120
3 403 124 283
3 7 440 250
3 369 97 88
3 67 494 79
3 63 378 11
3 474 334 42
3 156 104 35
3 73 367 247
3 301 150 296
3 423 198 131
3 23 216 71
3 1 11 391
3 26 485 193
3 156 170 363
3 193 239 509
3 492 420 341
3 215 268 500
3 453 171 62
3 368 176 229
3 119 462 506
3 293 53 260
3 438 99 204
3 460 392 119
3 91 96 209
3 417 341 412
3 110 232 182
3 294 95 116
3 114 491 275
3 204 370 390
3 509 435 442
3 47 7 18
3 496 225 369
3 334 100 377
3 42 334 44
3 256 167 439
3 477 334 474
3 61 22 252
3 336 328 188
3 49 28 333
3 383 358 394
3 236 492 56
3 279 91 78
3 124 403 248
3 495 311 367
3 230 340 218
3 475 446 40
3 195 38 251
3 67 290 494
3 108 425 121
3 386 412 196
3 215 431 152
3 482 126 481
3 341 417 429
3 371 508 210
3 22 61 54
3 495 338 59
3 35 170 156
3 177 453 62
3 109 134 401
3 62 150 177
3 489 298 12
3 132 59 338
3 502 227 221
3 470 250 270
3 432 116 50
3 262 326 9
3 373 290 88
3 496 369 348
3 249 192 189
3 301 21 175
3 292 372 321
3 202 409 115
3 304 132 10
3 155 139 101
3 112 91 254
3 138 415 379
3 409 234 141
3 434 8 60
3 272 506 74
3 451 126 482
3 135 429 327
3 141 326 262
3 254 127 112
3 9 345 471
3 263 404 35
3 117 222 219
3 37 91 112
3 480 405 280
3 432 50 160
3 112 407 37
3 484 492 341
3 176 368 261
3 69 4 149
3 400 258 432
3 401 224 203
3 466 284 313
3 57 80 498
3 62 73 150
3 44 377 99
3 310 382 92
3 410 27 165
3 20 466 346
3 299 431 106
3 293 270 39
3 112 127 17
3 265 30 235
3 358 383 280
3 499 390 90
3 502 313 284
3 271 166 48
3 181 335 186
3 466 313 194
3 74 307 272
3 259 220 428
3 333 508 392
3 479 190 351
3 355 366 418
3 9 326 122
3 159 493 291
3 247 150 73
3 113 317 350
3 206 128 347
3 144 146 302
3 342 454 287
3 3 448 163
3 20 322 433
3 374 41 349
3 147 161 266
3 179 467 15
3 354 397 162
3 146 448 3
3 350 383 511
3 293 260 413
3 266 254 147
3 508 16 210
3 135 298 231
3 114 275 103
3 475 386 196
3 369 472 33
3 154 7 250
3 463 433 322
3 91 147 254
3 273 29 472
3 420 236 133
3 125 286 474
3 181 416 485
3 29 500 268
3 253 268 215
3 106 139 426
3 500 273 93
3 201 414 84
3 191 0 362
3 154 490 7
3 13 485 283
3 358 405 68
3 227 278 220
3 260 140 228
3 136 175 21
3 354 215 152
3 410 76 222
3 19 321 372
3 68 446 133
3 371 495 367
3 483 349 415
3 354 382 397
3 197 448 144
3 179 314 467
3 207 491 302
3 163 52 161
3 189 297 233
3 128 140 260
3 300 218 223
3 278 502 43
3 355 435 239
3 227 502 278
3 158 161 147
3 55 257 345
3 423 131 271
3 243 194 226
3 220 450 428
3 297 189 82
3 470 270 374
3 484 315 282
3 213 58 66
3 211 157 177
3 437 250 470
3 260 228 413
3 367 421 371
3 342 481 126
3 185 406 303
3 365 137 459
3 55 281 257
3 216 387 143
3 309 18 339
3 458 267 269
3 63 1 374
3 51 118 256
3 97 225 36
3 264 14 299
3 195 143 387
3 161 211 277
3 145 5 375
3 277 163 161
3 272 460 506
3 225 10 36
3 232 355 418
3 151 356 224
3 167 256 125
3 10 376 304
3 146 144 448
3 474 42 32
3 15 135 327
3 128 260 53
3 446 480 107
3 164 378 458
3 230 105 281
3 39 270 250
3 273 472 290
3 507 173 444
3 218 300 230
3 360 130 331
3 457 304 359
3 280 405 358
3 424 462 119
3 266 161 52
3 493 122 326
3 289 72 259
3 46 220 278
3 85 108 454
3 323 69 77
3 119 392 421
3 414 512 370
3 401 134 151
3 289 139 72
3 161 158 211
3 353 394 6
3 274 330 246
3 155 486 227
3 329 120 218
3 226 194 313
3 289 426 139
3 102 197 504
3 313 502 221
3 258 478 191
3 101 486 155
3 358 6 394
3 208 445 214
3 382 354 152
3 462 244 506
3 318 81 464
3 334 377 44
3 457 359 169
3 181 13 335
3 149 148 69
3 143 129 459
3 27 113 511
3 101 139 106
3 362 423 505
3 145 422 5
3 32 42 248
3 108 121 23
3 310 378 237
3 23 121 216
3 353 25 463
3 370 204 414
3 373 88 317
3 147 91 209
3 419 456 510
3 503 344 98
3 183 60 8
3 308 348 33
3 191 362 306
3 26 283 485
3 140 128 200
3 456 437 391
3 219 199 117
3 245 178 259
3 340 94 291
3 478 489 0
3 427 351 190
3 103 487 242
3 19 411 321
3 343 197 52
3 477 24 130
3 399 149 51
3 261 368 84
3 487 451 482
3 46 461 488
3 311 21 301
3 503 209 96
3 421 367 424
3 325 163 277
3 492 31 25
3 274 246 200
3 326 111 493
3 385 391 11
3 402 312 449
3 121 303 406
3 374 1 470
3 378 63 458
3 22 54 145
3 95 294 411
3 114 103 242
3 397 382 237
3 446 68 405
3 147 209 158
3 283 124 468
3 174 333 460
3 132 65 59
3 269 275 312
3 249 376 205
3 221 227 486
3 109 395 213
3 266 127 254
3 205 308 192
3 348 308 205
3 440 404 263
3 30 265 252
3 237 164 397
3 159 291 94
3 85 441 246
3 311 495 59
3 38 366 355
3 72 139 155
3 445 171 214
3 196 133 446
3 330 501 452
3 235 120 329
3 425 108 87
3 177 150 211
3 42 187 64
3 288 451 465
3 184 489 478
3 309 384 255
3 396 322 20
3 133 196 420
3 438 183 187
3 323 77 203
3 437 456 419
3 451 487 379
3 371 210 495
3 464 300 86
3 109 213 336
3 229 417 412
3 160 316 444
3 369 88 290
3 324 24 118
3 315 444 282
3 266 34 127
3 466 194 346
3 70 26 193
3 345 363 471
3 456 391 385
3 424 73 62
3 374 483 63
3 141 262 409
3 218 340 329
3 442 435 30
3 154 419 178
3 511 113 350
3 115 2 384
3 430 365 459
3 181 485 13
3 153 455 52
3 44 438 187
3 209 503 157
3 328 336 422
3 377 100 84
3 439 167 26
3 424 367 73
3 217 471 170
3 331 324 80
3 195 366 38
3 478 0 191
3 350 317 28
3 181 251 416
3 312 491 449
3 302 337 144
3 478 507 184
3 238 390 241
3 197 144 504
3 390 40 107
3 393 360 331
3 224 323 203
3 317 16 28
3 503 453 177
3 499 445 241
3 86 425 452
3 512 201 180
3 436 410 222
3 297 82 402
3 406 185 232
3 440 263 250
3 480 74 107
3 301 325 277
3 328 234 45
3 466 50 284
3 498 323 224
3 296 150 247
3 15 83 179
3 320 164 458
3 63 11 1
3 361 186 285
3 74 90 107
3 202 234 409
3 188 198 351
3 44 187 42
3 466 20 305
3 149 509 442
3 507 315 184
3 393 123 261
3 306 294 258
3 168 288 465
3 458 63 267
3 234 202 166
3 81 381 240
3 407 285 332
3 165 322 396
3 332 37 407
3 372 46 19
3 68 236 56
3 456 14 510
3 105 230 464
3 238 241 319
3 285 186 335
3 173 400 432
3 429 417 327
3 472 369 290
3 256 118 286
3 157 158 209
3 269 312 402
3 146 3 364
3 329 54 61
3 331 83 393
3 497 337 302
3 308 268 253
3 222 93 436
3 390 370 40
3 378 310 11
3 187 183 8
3 335 476 332
3 412 180 229
3 415 398 168
3 104 276 347
3 353 56 25
3 285 335 332
3 3 175 364
3 105 464 81
3 376 249 233
3 9 295 262
3 423 479 198
3 512 40 370
3 30 252 142
3 71 459 137
3 274 501 330
3 496 376 10
3 327 176 123
3 343 52 163
3 145 375 22
3 30 110 235
3 125 32 167
3 333 392 460
3 467 314 135
3 364 207 146
3 17 212 365
3 126 288 85
3 225 97 369
3 479 362 0
3 353 463 322
3 373 317 113
3 125 474 32
3 352 217 47
3 111 54 493
3 28 49 350
3 369 33 348
3 292 461 372
3 384 2 255
3 282 31 492
3 75 243 219
3 505 48 321
3 205 376 496
3 394 357 383
3 469 231 315
3 388 89 287
3 274 128 318
3 452 87 330
3 251 430 129
3 323 51 4
3 380 153 102
3 304 233 359
3 171 445 244
3 307 174 272
3 108 85 87
3 275 269 408
3 486 226 221
3 183 204 319
3 476 335 13
3 303 425 86
3 70 399 439
3 479 0 190
3 228 140 398
3 54 291 493
3 129 195 251
3 210 97 36
3 385 310 92
3 430 186 361
3 403 32 248
3 418 406 232
3 450 220 46
3 237 378 164
3 287 89 473
3 172 473 504
3 234 389 326
3 344 434 60
3 311 296 367
3 250 437 154
3 167 283 26
3 270 41 374
3 68 6 358
3 430 361 365
3 375 5 66
3 166 45 234
3 207 169 491
3 217 170 35
3 347 263 104
3 416 239 193
3 315 484 469
3 43 95 19
3 502 284 116
3 163 325 3
3 466 305 50
3 341 196 412
3 193 485 416
3 68 133 236
3 131 198 188
3 318 206 381
3 473 481 287
3 319 204 238
3 431 215 500
3 84 414 377
3 116 258 294
3 82 320 402
3 379 408 138
3 115 384 488
3 508 371 392
3 505 423 271
3 355 110 435
3 239 416 38
3 281 94 230
3 256 439 399
3 262 2 409
3 105 81 240
3 116 95 43
3 204 183 438
3 397 192 308
3 160 50 305
3 54 340 291
3 387 366 195
3 76 75 222
3 455 17 127
3 172 481 473
3 443 124 248
3 255 217 352
3 484 282 492
3 339 245 428
3 71 143 459
3 178 245 490
3 347 276 206
3 407 17 361
3 242 487 172
3 216 406 387
3 348 205 496
3 199 219 101
3 383 49 280
3 10 225 496
3 406 216 121
3 427 151 134
3 290 67 273
3 293 413 41
3 166 271 45
3 280 174 307
3 508 333 28
3 18 352 47
3 407 361 285
3 318 381 81
3 308 162 397
3 83 57 356
3 76 20 346
3 171 244 462
3 331 80 83
3 295 9 471
3 31 444 316
3 224 401 151
3 368 229 201
3 148 149 442
3 49 174 280
3 136 207 364
3 463 31 316
3 183 319 60
3 417 176 327
3 296 311 301
3 132 304 65
3 214 453 503
3 388 454 23
3 424 62 171
3 334 477 100
3 199 431 500
3 194 75 346
3 79 27 410
3 446 405 480
3 509 149 399
3 309 450 488
3 271 131 45
3 257 363 345
3 464 230 300
3 302 491 497
3 373 27 79
3 440 7 404
3 309 352 18
3 476 13 283
3 17 407 112
3 162 253 354
3 196 341 420
3 137 388 71
3 197 153 52
3 277 211 150
3 222 75 219
3 488 450 46
3 134 109 188
3 92 299 14
3 35 47 217
3 214 171 453
3 262 295 2
3 242 497 114
3 475 180 386
3 397 164 189
3 29 268 33
3 329 265 235
3 19 95 411
3 269 320 458
3 129 430 459
3 80 324 498
3 465 379 168
3 380 102 89
3 388 212 380
3 276 240 381
3 489 190 0
3 241 390 499
3 48 292 321
3 354 253 215
3 65 304 457
3 299 92 382
3 328 422 389
3 444 315 507
3 374 349 483
3 359 449 169
3 74 506 244
3 233 304 376
3 463 25 31
3 104 156 276
3 142 22 66
3 271 48 505
3 118 24 286
3 380 455 153
3 210 317 97
3 270 293 41
3 483 415 138
3 343 448 197
3 353 165 357
3 121 425 303
3 441 85 288
3 422 145 111
3 220 259 72
3 323 498 51
3 131 328 45
3 449 297 402
3 443 64 447
3 414 201 512
3 202 115 292
3 338 210 36
3 492 25 56
3 257 276 156
3 175 136 364
3 269 402 320
3 460 119 506
3 331 130 24
3 299 152 431
3 491 114 497
3 223 232 185
3 212 455 380
3 232 110 355
3 10 132 36
3 447 279 443
3 477 286 24
3 169 136 457
3 443 279 78
3 498 224 57
3 20 433 305
3 138 267 483
3 218 120 223
3 451 288 126
3 166 202 48
3 105 240 281
3 470 1 391
3 207 136 169
3 173 432 160
3 210 16 317
3 455 212 17
3 288 140 441
3 74 499 90
3 449 491 169
3 512 475 40
3 331 24 324
3 426 289 510
3 388 380 89
3 189 164 82
3 3 325 175
3 123 176 261
3 435 509 239
3 66 5 213
3 444 173 160
3 263 53 39
3 87 452 425
3 464 86 452
3 184 231 298
3 281 55 94
3 372 461 46
3 182 232 120
3 15 123 393
3 261 130 360
3 492 236 420
3 503 98 214
3 486 243 226
3 48 202 292
3 302 146 207
3 168 398 288
3 4 51 149
3 267 63 483
3 429 469 484
3 39 250 263
3 468 124 443
3 182 235 110
3 499 74 244
3 414 204 99
3 52 34 266
3 350 49 383
3 119 421 424
3 306 505 411
3 490 339 18
3 487 103 379
3 422 336 5
3 289 178 510
3 468 443 78
3 342 85 454
3 495 210 338
3 122 159 345
3 12 190 489
3 438 44 99
3 165 27 357
3 309 428 450
3 279 434 344
3 79 436 67
3 344 96 279
3 261 360 393
3 47 404 7
3 329 61 265
3 49 333 174
3 178 419 510
3 134 351 427
3 188 328 131
3 70 439 26
3 168 379 415
3 468 476 283
3 79 494 373
3 92 14 385
3 43 502 116
3 391 437 470
3 486 101 243
3 56 6 68
3 258 116 432
3 145 54 111
3 498 324 51
3 503 177 157
3 83 80 57
3 6 56 353
3 230 94 340
3 77 69 148
3 300 223 185
3 120 235 182
3 399 70 509
3 382 152 299
3 140 288 398
3 58 395 203
3 196 446 475
3 36 132 338
3 102 473 89
3 395 109 401
3 164 320 82
3 71 388 23
3 151 427 356
3 264 106 426
3 503 96 344
3 367 296 247
3 203 395 401
3 309 488 384
3 322 165 353
3 137 212 388
3 4 69 323
3 239 38 355
3 174 460 272
3 148 30 142
3 179 83 356
3 185 303 300
3 318 464 501
3 219 243 101
3 504 337 172
3 158 157 211
3 231 184 315
3 447 434 279
3 464 452 501
3 326 389 111
3 54 329 340
3 375 66 22
3 310 385 11
3 199 500 117
3 155 220 72
3 299 106 264
3 508 28 16
3 444 31 282
3 58 213 395
3 128 206 318
3 67 93 273
3 273 500 29
3 150 301 277
3 192 397 189
3 298 489 184
3 257 156 363
3 8 447 64
3 336 188 109
3 284 50 116
3 491 312 275
3 427 179 356
3 128 53 347
3 413 228 398
3 148 442 30
3 40 446 107
3 245 339 490
3 351 134 188
3 487 482 172
3 505 321 411
3 319 208 60
3 269 267 138
3 102 153 197
3 22 142 252
3 8 434 447
3 43 19 278
3 201 229 180
3 443 248 64
3 314 179 427
3 479 423 362
3 23 454 108
3 259 178 289
3 481 172 482
3 251 181 430
3 427 12 314
3 473 102 504
3 255 352 309
3 269 138 408
3 377 414 99
3 27 511 357
3 20 76 396
3 127 34 455
3 187 8 64
3 406 418 366
3 488 461 115
3 343 163 448
3 76 410 396
3 346 75 76
3 308 253 162
3 478 258 400
3 32 403 167
3 316 433 463
3 305 316 160
3 417 229 176
3 135 314 298
3 87 246 330
