ply
format ascii 1.0
comment written by method MeshWithData::saveAsPLY
element vertex 513
property float x
property float y
property float z
element face 1022
property list uchar int vertex_index
end_header
-1.3254564 0.17655711 0.46770558
1.3370079 -0.078852773 0.489629
-0.38512111 -0.24926738 0.82908601
1.2129853 -0.0040218057 -0.59128076
-1.3459051 -0.40227643 -0.18702757
-1.1926484 -0.42106476 0.37185255
-0.5256927 0.7481485 -0.12805825
0.68627656 -0.20586424 0.78302681
-0.63294131 -0.0066149025 -0.82808149
-0.35353726 -0.41624838 0.74590534
1.1919243 0.48567909 -0.2555455
1.3370079 0.077832438 0.489629
-1.4840233 0.18549916 0.26736644
-0.45011568 -0.50031745 -0.6573571
0.98433715 0.2099106 0.67199016
-1.5583856 0.17925373 -0.059374101
0.56845224 0.683622 -0.34339708
0.43641791 -0.46938595 -0.69074655
0.37735003 -0.14355305 0.86228663
-0.50504386 0.21321099 0.82281697
-0.25486031 0.72014296 0.36993691
1.1692322 0.22484641 -0.56228316
-1.0027559 -0.57912165 0.27021796
0.5700351 -0.72266263 -0.22917384
-1.4516082 -0.092253648 -0.36690593
-0.65167975 0.72559267 0.10321142
-0.78438109 -0.49389306 -0.55735713
0.080214538 0.80068511 -0.0082472181
0.28497437 0.72638786 -0.34776664
0.86990535 0.64286512 0.22387387
-0.94975221 -0.64478844 -0.067559578
-0.77812475 0.67444599 0.21316285
-1.0367705 -0.20430548 -0.64769053
1.0369881 0.60541523 0.091792293
0.66865551 -0.31652266 -0.73838133
0.35473222 -0.41624838 0.74590534
1.0087693 0.55533987 -0.31994742
-0.029174129 -0.33569452 -0.82055724
-0.42579049 -0.71486062 -0.33062744
0.94280207 -0.35482359 0.61117864
-0.78438109 0.49287271 -0.55735713
1.2267648 -0.32549635 0.45325375
-1.0345469 -0.089307547 -0.68220264
-0.47879529 0.32593399 0.77808332
-1.0846676 0.061561495 -0.66009218
-0.99290687 -0.17390707 0.67993593
-0.21229044 0.13571563 0.88021421
0.37161201 -0.26380673 0.82611471
-0.89555043 0.011900101 0.74787289
0.0034958746 0.7354629 -0.35705653
-0.60698253 0.5505054 0.55948907
-1.3802454 -0.34150454 -0.25557524
0.8547737 -0.22723822 -0.72092903
0.78557605 -0.49389306 0.55735713
-0.75710386 -0.61566573 0.39303389
-0.23000064 -0.61211717 0.56801331
-0.68460548 0.72432864 -0.034817114
-1.571461 -0.15362138 -0.029913185
-1.3018645 -0.45674476 0.11942755
1.0216534 0.41896281 -0.51104152
-0.47527871 0.11367105 -0.8524667
-0.8687104 -0.64388549 0.22387387
0.37161201 0.26278639 -0.82611471
1.4502752 -0.031458713 0.38542667
-0.75310761 -0.090009883 -0.7900269
1.2267648 0.32447603 -0.45325375
-1.1907294 -0.48669943 0.2555455
0.52719057 0.733814 0.20869565
-0.70427024 0.69469368 -0.21287376
-1.3166894 -0.4485355 -0.10799298
-0.96164191 -0.50497997 -0.44713971
0.49326897 -0.70038879 -0.34391028
0.37261611 0.23714888 0.83509916
0.47999018 0.32593399 -0.77808332
-0.30750984 0.54497916 -0.63938338
0.047842536 0.65861928 0.5119487
-0.0023009207 0.7354629 0.35705653
-1.3276851 -0.44941944 -0.012143948
-0.22706166 -0.26365525 -0.84224099
0.25528985 0.78630984 0.10075539
-1.5642278 -0.10695412 -0.15325402
0.15549967 -0.72532606 0.37561077
1.5597256 0.17941342 0.05780578
-1.6017933 -0.0078410283 -0.044784594
-1.3254564 0.17655711 -0.46770564
0.95094717 -0.64478844 -0.067559578
0.15572152 -0.78891218 0.13536282
0.67154372 -0.72924221 -0.010779976
0.65287471 0.72559267 -0.10321142
0.96283686 -0.50497997 -0.44713971
-0.45011568 0.49929708 -0.6573571
0.075193048 -0.19918424 -0.87389857
1.1692322 0.22484641 0.56228316
0.49326897 0.69936842 0.34391028
-0.28723049 -0.68796545 0.4343437
-0.66746056 0.31550235 0.73838133
-0.028049216 -0.07938613 -0.89757591
0.78365642 0.67340958 -0.21256463
-0.21229044 0.13571563 -0.88021421
-0.99290687 0.17288674 -0.67993593
-1.3358129 0.077832438 -0.489629
0.43641791 0.46836561 0.69074655
1.0216534 -0.41998315 -0.51104152
1.5247263 -0.2439754 -0.05645724
0.45131063 -0.50031745 0.6573571
-0.02487446 -0.73676479 0.35562128
0.71035773 0.40427786 0.67010379
-0.60698253 0.5505054 -0.55948907
0.5824703 -0.74337041 -0.099883571
-1.3826618 -0.24020655 0.3672497
-0.65167975 -0.72661299 -0.10321142
-0.78438109 -0.49389306 0.55735713
0.25414053 -0.36171606 -0.79266644
0.27304906 0.78190243 -0.11974945
1.541235 -0.17171779 -0.1573419
-0.47527871 -0.11469139 0.8524667
-0.70916277 0.40427786 0.67010379
0.45281267 0.64771456 0.46769974
-1.3826618 -0.24020655 -0.3672497
0.24472246 0.531376 -0.66021132
-0.5256927 -0.74916881 0.12805825
0.27304906 -0.7829228 -0.11974945
-0.45011568 -0.50031745 0.6573571
-1.5117276 0.21752588 -0.16865161
-0.66746056 -0.31652266 -0.73838133
-1.1680373 -0.22586675 -0.56228316
1.1602497 -0.54680574 -0.1008751
0.47999024 -0.32695433 -0.77808332
0.75829881 -0.61566573 0.39303389
0.01392101 -0.70209545 -0.43702534
-1.4490802 0.030438378 -0.38542667
-1.1795137 -0.12500782 0.59354138
1.1938434 0.42004442 -0.37185255
-0.8687104 0.64286512 -0.22387387
-1.4967198 -0.11433973 0.29603821
-1.4763166 0.31105262 0.046340629
1.3266513 0.17655711 -0.46770564
0.45281267 -0.64873493 -0.46769974
1.5335513 -0.18888701 0.16092315
0.47999024 0.32593399 0.77808332
1.0039508 -0.57912165 0.27021796
-0.66746056 -0.31652266 0.73838133
-1.1656787 -0.54586297 0.086823896
0.093317583 -0.74355811 -0.33524242
1.2873497 -0.19950871 -0.48898461
-0.96164191 -0.50497997 0.44713974
1.3370079 -0.078852765 -0.489629
0.34301272 -0.14036962 -0.86660862
-1.1590546 -0.54680574 -0.1008751
-1.1907294 -0.48669943 -0.2555455
0.68627656 0.20484391 -0.78302681
-1.5642278 -0.10695412 0.15325402
1.0216534 0.41896281 0.51104152
0.94280207 -0.35482359 -0.61117864
0.84451663 -0.073786095 0.76380461
0.25414053 0.36069572 0.79266644
0.24472246 -0.53239638 0.66021132
0.3601253 0.052266825 -0.87692803
0.44412079 -0.037253901 -0.86472952
-0.3978157 -0.60557842 0.54750967
-0.77064389 0.59042555 0.42790225
0.6582889 -0.099394016 -0.81498671
1.2021424 0.46906939 0.27660871
0.94688064 -0.075671345 -0.72451854
1.5002443 0.20268989 0.22748595
-0.11899149 0.7909649 0.12806593
-0.88957417 -0.071735993 0.74565387
-1.0034114 -0.3432236 -0.58906174
1.3345962 -0.42115799 0.16584523
1.4979148 0.1133194 -0.29603821
0.15728638 -0.4357329 0.75173295
0.062494569 0.34209132 -0.81544369
1.343492 -0.37001225 -0.26540852
-0.96164191 0.50395966 0.44713971
-0.015365012 0.65942472 -0.51284468
1.1807086 0.1239875 -0.59354138
-1.4179828 0.32645983 -0.20608309
0.37735003 0.14253271 -0.86228663
0.6582889 0.098373681 0.81498671
-1.5823526 0.11332621 0.067268796
-1.1926484 0.42004442 -0.37185255
-0.35744074 -0.6206485 -0.53591007
-0.53616989 -0.75550163 0.0043504192
-0.71059257 0.10092013 -0.79951692
-1.3271592 0.37074989 0.2840099
-0.13369325 -0.79998052 -0.011988114
-0.12354584 -0.58725876 -0.61046159
-0.89555043 -0.012920436 -0.74787289
-1.3254564 -0.17757745 0.46770564
1.4775115 0.31105262 0.046340637
-1.4516082 0.091233313 0.36690593
-1.1680373 0.22484641 0.56228316
1.3787735 0.39094421 0.13633689
-0.77064389 -0.59144586 -0.42790225
-0.12354584 0.58623844 0.61046159
-0.18545929 -0.73308164 -0.34918249
-1.0027559 0.57810128 -0.27021796
1.1209137 -0.26037747 -0.57673228
-1.3358129 -0.078852773 0.489629
0.60817748 0.5505054 0.55948907
0.86990535 -0.64388549 0.22387387
-1.2255698 0.324476 -0.45325375
-0.71059257 -0.10194047 0.79951692
-1.4466703 -0.33636588 0.091312021
-0.85357875 0.2262179 -0.72092903
1.2983408 0.47053179 0.0093598664
0.51160187 -0.64677083 0.44902354
1.4593658 0.014375634 -0.37708241
-0.38512111 0.24824706 -0.82908601
0.22827025 -0.060304653 -0.89040947
0.75829881 0.61464536 -0.39303389
0.63843578 0.045258731 -0.82685709
0.60817748 -0.55152571 -0.55948907
-1.3271592 -0.37177023 0.2840099
-0.10936238 0.20956285 -0.86855716
0.96283686 0.50395966 0.44713971
0.21311514 -0.76857799 -0.23254538
0.062494569 -0.34311166 0.81544369
-0.404818 -0.74913055 0.22850661
0.29692283 0.60848784 0.56265831
0.075193048 0.1981639 0.87389857
-0.15609142 0.43471256 0.75173295
0.18612458 0.71250266 0.4008013
-0.2718541 -0.7829228 0.11974945
-1.5484614 -0.1994866 0.059664182
0.98782092 0.60768288 -0.19379422
0.00082105835 0.51164949 0.69409478
-0.029174129 0.33467418 0.82055724
1.0638191 -0.52577472 0.32542175
-1.3271592 0.37074989 -0.2840099
-0.17810747 -0.74842411 0.30869126
-1.3459051 0.40125608 0.18702757
-0.41878194 -0.77440256 -0.043408711
1.4382768 0.32751468 -0.15594199
-0.85357875 -0.22723822 0.72092903
-0.7161122 -0.71689177 0.045091596
-0.869856 0.66769445 -0.08813554
1.3838568 0.23918621 0.3672497
-0.66746056 0.31550235 -0.73838133
-0.67790449 -0.6621896 -0.33855796
0.022186721 -0.66465151 0.50502294
-0.47879529 0.32593399 -0.77808332
1.452893 -0.27611154 -0.22350347
0.18051465 0.55356139 0.6453945
-0.15609142 0.43471256 -0.75173295
0.44412079 0.036233567 0.86472952
0.87105095 -0.66871476 0.08813554
0.66865551 0.31550235 -0.73838133
-0.82766092 -0.19408177 -0.74197203
1.393913 0.39578724 -0.020849317
0.94933301 -0.2180227 0.6863758
-0.24177906 -0.68959838 -0.44038576
-1.0357932 -0.6064356 0.091792293
1.0638191 0.52475441 0.32542175
0.37261611 -0.23816922 -0.83509916
-0.10936238 -0.21058318 0.86855716
-1.2255698 -0.32549635 -0.45325375
0.027495479 -0.58938563 0.61233461
-1.0034114 0.34220326 0.58906174
0.34301272 0.1393493 0.86660862
0.96283686 -0.50497997 0.44713971
-1.4680508 0.18499708 -0.29620862
-0.47879529 -0.32695433 0.77808332
0.71035773 -0.40529817 0.67010379
0.91513455 0.30393645 0.65646136
-0.869856 -0.66871476 0.08813554
0.5688777 -0.19969642 -0.81318247
1.5435054 -0.075208575 0.22999319
1.0039508 0.57810128 0.27021793
1.6017933 -0.022174511 0.059753764
1.1209137 -0.26037747 0.57673228
-1.0846676 -0.06258183 0.66009218
-0.12354585 0.58623844 -0.61046159
0.7054652 0.69469368 0.21287376
0.7054652 -0.69571406 0.21287376
1.5835476 -0.11434655 -0.067268796
0.33682817 -0.61938083 0.54255587
0.85422575 0.044889256 -0.76269782
-0.22706166 0.26263493 0.84224099
-0.21229044 -0.13673596 -0.88021421
-0.18050922 0.72029936 -0.38210163
-0.12703137 -0.66926432 0.49245471
-0.98662597 0.60768288 0.19379422
-0.70916277 -0.40529817 -0.67010379
-0.45011568 0.49929708 0.6573571
0.00082105835 -0.51266986 -0.69409478
-1.3254564 -0.17757745 -0.46770558
1.0087693 -0.55636019 -0.31994742
1.1668737 -0.54586297 0.086823896
0.5688777 0.19867608 0.81318247
0.68580043 0.72432864 0.034817114
-0.51040691 -0.64677083 0.44902354
-0.63294131 0.005594566 0.82808149
1.0216534 -0.41998315 0.51104152
-0.9139396 0.30393645 0.65646136
-0.18288946 -0.32664877 0.81686568
0.91513455 0.30393645 -0.65646136
1.5496564 0.19846627 -0.059664182
-1.4450613 0.28362936 0.22408348
1.0046064 0.34220326 0.58906174
-0.097797319 -0.78994191 0.15188242
0.96410149 0.18986514 -0.6897763
1.4097819 -0.12728135 -0.40635717
0.10801621 -0.80068511 2.5880689e-09
1.3814404 0.3404842 -0.25557524
-0.51040691 0.64575046 0.44902354
-1.0367705 0.20328514 0.64769053
-0.24776015 0.65564781 -0.49841821
1.2299069 0.48943877 0.18121877
0.043926161 -0.053624623 0.90067261
1.3266513 0.17655711 0.46770558
1.0046064 0.34220323 -0.58906174
1.596288 0.013813178 -0.088735461
-0.24839786 0.52708215 0.66381258
-1.54004 0.17069745 0.1573419
-1.1907294 0.48567909 0.2555455
-0.67790449 0.66116923 0.33855796
0.5700351 0.72164232 -0.22917384
0.49326897 -0.70038879 0.34391028
-0.59860927 0.20809105 -0.8023026
1.5654228 0.10593379 0.15325402
-0.75310761 0.088989548 0.7900269
-0.27912146 0.76980859 0.19260857
-1.4763166 -0.31207296 -0.046340629
-1.4733331 -0.19336945 -0.27985188
1.0858625 0.061561488 -0.66009218
-0.70916277 -0.40529817 0.67010379
-1.4466703 0.33534554 -0.091312021
-1.1197188 -0.26037747 0.57673228
-0.70427024 -0.69571406 0.21287376
0.63754004 -0.7273761 0.12785217
-1.5435041 -0.055490095 -0.23633215
-0.15609142 -0.4357329 -0.75173295
0.25075963 0.6847555 -0.44673067
-1.2333487 -0.00062195963 -0.57617962
-0.24839786 -0.52810252 -0.66381258
-1.2255698 -0.32549635 0.45325375
1.3838568 -0.24020655 -0.3672497
0.96283686 0.50395966 -0.44713971
0.3601253 -0.05328716 0.87692803
-0.49207401 -0.70038879 0.34391028
-1.1656787 0.5448426 -0.086823896
0.98782092 -0.60870326 -0.19379422
0.99410182 -0.17390707 -0.67993593
-0.25566718 0.021635011 -0.89031768
-0.24839783 -0.52810252 0.66381258
-0.11467733 0.67047083 0.4897165
0.60817748 -0.55152571 0.55948907
1.1752958 0.54253852 0.04916741
1.3838568 -0.24020652 0.3672497
0.23461644 0.76139247 -0.24885093
-1.4490802 -0.031458713 0.38542667
0.14999428 -0.20494857 0.86788571
-0.40775204 0.77441084 0.047489062
1.1938434 0.42004442 0.37185255
-0.52538192 -0.73450154 -0.2078985
-1.5971417 -0.033301808 0.075787045
-0.13413504 0.79835945 -0.036890592
-0.38005427 0.74819434 -0.24340245
1.4980065 0.21584757 -0.2141166
-1.5423105 0.07418824 -0.22999319
0.18051465 -0.55458176 -0.6453945
-1.1731116 0.12155233 0.59837198
0.00082106225 -0.51266986 0.69409478
1.3370079 0.077832438 -0.489629
0.29692283 -0.60950816 -0.56265831
-0.29508045 -0.75797904 -0.24347638
0.71035773 0.40427786 -0.67010379
-1.3826618 0.23918621 -0.3672497
0.95094717 0.64376813 -0.067559578
-0.94160712 0.35380325 -0.61117864
0.60817748 0.5505054 -0.55948907
-0.46046051 0.1298416 0.85136396
0.42074353 0.77154064 -0.061852418
1.3266513 -0.17757745 0.46770558
-1.0626241 -0.52577478 0.32542175
1.2985466 0.45398831 -0.13858441
-1.1795137 0.12398748 -0.59354138
1.4528031 0.091233298 0.36690593
1.4775115 -0.31207296 0.046340633
0.78557599 -0.49389306 -0.55735713
0.27445623 -0.68097526 0.45088026
1.2267648 0.324476 0.45325375
-0.10547218 0.7740193 -0.22384849
-0.21229044 -0.13673596 0.88021421
1.1807086 0.12398748 0.59354138
-1.0626241 0.52475441 -0.32542175
-0.072889984 -0.76915866 -0.24948181
0.75829881 -0.61566573 -0.39303389
-0.94160712 -0.35482359 0.61117864
-0.70916277 0.40427786 -0.67010379
1.2129853 -0.0040218057 0.59128076
0.39901066 0.60455811 -0.54750967
-1.5730425 0.089050174 -0.14326447
-0.2718541 0.78190243 -0.11974945
-1.4179828 -0.32748014 0.20608309
-0.072889991 0.76813829 0.24948181
1.3814404 0.3404842 0.25557524
1.1919243 -0.48669943 0.2555455
-1.1926484 -0.42106476 -0.37185255
-1.0204585 0.41896281 0.51104152
-1.4968115 -0.21686789 0.2141166
1.5907967 0.099143945 0.0059901709
-0.9139396 -0.30495679 -0.65646136
0.47999024 -0.32695433 0.77808332
-0.49207401 0.69936842 -0.34391028
-0.073135115 -0.79646122 -0.10747127
0.15728638 -0.4357329 -0.75173295
1.5595806 -0.18027407 0.059374101
-0.59860927 -0.20911138 0.8023026
0.10615144 0.77898139 0.20223439
-0.82766092 0.19306144 0.74197203
-1.1907294 0.48567909 -0.2555455
1.1938434 -0.42106476 0.37185255
-1.1197188 0.25935715 -0.57673228
1.3814404 -0.34150454 0.25557524
-0.51040691 -0.64677083 -0.44902354
-1.3018645 0.45572442 -0.11942755
-0.30876762 -0.77666903 -0.14018324
0.88897067 0.068246491 0.74660385
-1.0357932 0.60541523 -0.091792293
0.45131063 0.49929708 -0.6573571
-1.0204585 -0.41998315 0.51104158
-1.2333487 -0.00039837655 0.57617962
0.35473222 0.41522804 -0.74590534
0.35343015 -0.78242588 -1.3016118e-09
0.66865551 0.31550235 0.73838133
-1.5492445 0.04170233 0.2296966
0.22827025 0.059284318 0.89040947
-1.3276851 0.44839913 0.012143948
-0.01604229 -0.64938182 -0.52992219
0.78557605 0.49287271 0.55735713
-0.78438109 0.49287271 0.55735713
-0.39914244 0.72530293 0.31104994
-0.39735544 -0.053545009 -0.87134564
-0.77812475 -0.67546636 -0.21316285
0.30042258 0.75565231 0.24529056
1.0031208 -0.060821183 0.70019621
-0.88957417 0.070715658 -0.74565387
-1.0204585 -0.41998315 -0.51104152
0.66865551 -0.31652266 0.73838133
1.0369881 -0.6064356 0.091792293
-0.98662597 -0.60870326 -0.19379422
-0.50504386 -0.21423133 -0.82281697
-1.0075743 0.55533987 0.31994742
-0.18288946 0.32562846 -0.81686568
-0.75710386 0.61464536 -0.39303389
-0.46046051 -0.13086194 -0.85136396
1.1743065 -0.12257268 -0.59837198
1.5654228 0.10593379 -0.15325402
-0.028049216 0.078365795 0.89757591
1.3188565 -0.4555757 -0.026575353
0.40581551 -0.7702623 0.10670682
0.14999428 0.20392823 -0.86788571
0.78365642 -0.67442995 -0.21256463
0.71035767 -0.40529817 -0.67010379
1.0399179 0.075462773 0.68295836
1.3838568 0.23918621 -0.3672497
1.5446991 0.054469757 0.23633215
0.22217886 -0.69380343 -0.43478513
0.17819224 0.60589218 -0.58226871
-0.39735544 0.052524675 0.87134564
0.15728638 0.43471256 -0.75173295
-0.52538192 0.73348123 0.2078985
0.19751154 -0.76616782 0.24738601
1.3425596 -0.43581372 0.064842083
-0.35744074 0.61962813 0.53591007
-1.5366995 0.22125144 0.0413367
-0.47879529 -0.32695433 -0.77808332
-1.3166894 0.44751516 0.10799298
1.1743065 -0.12257266 0.59837198
-0.15609142 -0.4357329 0.75173295
0.87105095 0.66769445 0.08813554
1.1938434 -0.42106476 -0.37185255
-1.1731116 -0.12257268 -0.59837198
-0.96164191 0.50395966 -0.44713974
-0.35353726 -0.41624838 -0.74590534
-1.3358129 -0.078852773 -0.489629
-1.2255698 0.324476 0.45325375
-1.3358129 0.077832438 0.489629
-0.45161772 0.64771456 -0.46769974
1.1919243 -0.48669943 -0.2555455
1.2985466 -0.45500866 -0.13858439
1.4692458 -0.18601742 0.29620862
-1.1590546 0.54578537 0.1008751
-0.60698253 -0.55152571 -0.55948907
0.15728638 0.43471256 0.75173295
1.4246914 -0.35697293 -0.10337287
-0.25566718 -0.022655347 0.89031768
-1.3826618 0.23918621 0.3672497
0.63843578 -0.046279065 0.82685709
1.5541949 -0.037807953 -0.22350833
-0.94975221 0.64376813 0.067559578
-0.60698253 -0.55152571 0.55948907
0.40947428 0.77094376 0.08403571
0.78557599 0.49287271 -0.55735713
1.1602496 0.54578537 -0.1008751
1.4852183 -0.18651949 -0.26736644
-1.5232078 -0.22171099 -0.13163567
-0.35353726 0.41522804 -0.74590534
0.75829881 0.61464536 0.39303389
0.47027278 -0.73901892 0.22808792
-0.35353726 0.41522804 0.74590534
0.043926161 0.052604288 -0.90067261
1.2267648 -0.32549638 -0.45325375
-1.0345469 0.088287212 0.68220264
0.00082106225 0.51164949 -0.69409478
-1.1926484 0.42004442 0.37185255
0.51160187 0.64575046 -0.44902354
-1.0075743 -0.55636019 -0.31994742
0.7978946 0.19909927 0.74912149
0.053776473 0.785519 -0.17225011
-1.0204585 0.41896281 -0.51104158
3 263 347 53
3 142 58 77
3 51 324 118
3 135 469 429
3 385 14 456
3 231 469 135
3 173 507 400
3 383 357 511
3 457 136 65
3 475 512 180
3 2 295 255
3 144 337 504
3 295 217 255
3 123 15 327
3 101 106 199
3 345 159 55
3 398 415 413
3 409 2 115
3 58 142 66
3 316 305 433
3 408 103 275
3 342 287 481
3 294 306 411
3 100 477 130
3 198 479 351
3 341 429 484
3 59 65 311
3 256 399 51
3 441 200 246
3 191 306 258
3 359 233 297
3 107 90 390
3 75 194 243
3 264 426 510
3 142 77 148
3 224 356 57
3 135 15 467
3 212 137 365
3 53 293 39
3 217 295 471
3 252 265 61
3 257 240 276
3 240 257 281
3 436 93 67
3 345 9 122
3 268 308 33
3 406 366 387
3 170 471 363
3 171 462 424
3 103 408 379
3 206 276 381
3 242 172 337
3 393 83 15
3 494 290 373
3 19 46 278
3 226 313 221
3 227 220 155
3 477 474 286
3 201 84 368
3 37 78 91
3 130 261 84
3 42 64 248
3 159 122 493
3 361 17 365
3 428 309 339
3 143 195 129
3 55 159 94
3 37 476 78
3 388 287 454
3 117 93 222
3 263 35 104
3 422 111 389
3 78 476 468
3 93 117 500
3 362 505 306
3 389 234 328
3 371 421 392
3 317 88 97
3 33 472 29
3 84 100 130
3 30 435 110
3 238 204 390
3 141 234 326
3 283 167 403
3 241 445 208
3 77 58 203
3 510 14 264
3 349 41 415
3 359 297 449
3 509 70 193
3 246 87 85
3 280 307 480
3 216 143 71
3 251 38 416
3 342 126 85
3 386 180 412
3 21 311 65
3 274 200 128
3 307 74 480
3 259 428 245
3 136 21 65
3 256 286 125
3 461 292 115
3 501 274 318
3 431 199 106
3 336 213 5
3 373 113 27
3 437 419 154
3 86 300 303
3 410 436 79
3 476 37 332
3 241 208 319
3 249 205 192
3 301 175 325
3 35 404 47
3 181 186 430
3 445 499 244
3 165 396 410
3 178 490 154
3 237 382 310
3 98 208 214
3 379 465 451
3 478 400 507
3 233 249 189
3 60 208 98
3 60 98 344
3 394 353 357
3 455 34 52
3 427 190 12
3 12 298 314
3 200 441 140
3 242 337 497
3 415 41 413
3 96 91 279
3 18 7 490
3 232 223 120
3 403 124 283
3 7 440 250
3 369 97 88
3 67 494 79
3 63 378 11
3 474 334 42
3 156 104 35
3 73 367 247
3 301 150 296
3 423 198 131
3 23 216 71
3 1 11 391
3 26 485 193
3 156 170 363
3 193 239 509
3 492 420 341
3 215 268 500
3 453 171 62
3 368 176 229
3 119 462 506
3 293 53 260
3 438 99 204
3 460 392 119
3 91 96 209
3 417 341 412
3 110 232 182
3 294 95 116
3 114 491 275
3 204 370 390
3 509 435 442
3 47 7 18
3 496 225 369
3 334 100 377
3 42 334 44
3 256 167 439
3 477 334 474
3 61 22 252
3 336 328 188
3 49 28 333
3 383 358 394
3 236 492 56
3 279 91 78
3 124 403 248
3 495 311 367
3 230 340 218
3 475 446 40
3 195 38 251
3 67 290 494
3 108 425 121
3 386 412 196
3 215 431 152
3 482 126 481
3 341 417 429
3 371 508 210
3 22 61 54
3 495 338 59
3 35 170 156
3 177 453 62
3 109 134 401
3 62 150 177
3 489 298 12
3 132 59 338
3 502 227 221
3 470 250 270
3 432 116 50
3 262 326 9
3 373 290 88
3 496 369 348
3 249 192 189
3 301 21 175
3 292 372 321
3 202 409 115
3 304 132 10
3 155 139 101
3 112 91 254
3 138 415 379
3 409 234 141
3 434 8 60
3 272 506 74
3 451 126 482
3 135 429 327
3 141 326 262
3 254 127 112
3 9 345 471
3 263 404 35
3 117 222 219
3 37 91 112
3 480 405 280
3 432 50 160
3 112 407 37
3 484 492 341
3 176 368 261
3 69 4 149
3 400 258 432
3 401 224 203
3 466 284 313
3 57 80 498
3 62 73 150
3 44 377 99
3 310 382 92
3 410 27 165
3 20 466 346
3 299 431 106
3 293 270 39
3 112 127 17
3 265 30 235
3 358 383 280
3 499 390 90
3 502 313 284
3 271 166 48
3 181 335 186
3 466 313 194
3 74 307 272
3 259 220 428
3 333 508 392
3 479 190 351
3 355 366 418
3 9 326 122
3 159 493 291
3 247 150 73
3 113 317 350
3 206 128 347
3 144 146 302
3 342 454 287
3 3 448 163
3 20 322 433
3 374 41 349
3 147 161 266
3 179 467 15
3 354 397 162
3 146 448 3
3 350 383 511
3 293 260 413
3 266 254 147
3 508 16 210
3 135 298 231
3 114 275 103
3 475 386 196
3 369 472 33
3 154 7 250
3 463 433 322
3 91 147 254
3 273 29 472
3 420 236 133
3 125 286 474
3 181 416 485
3 29 500 268
3 253 268 215
3 106 139 426
3 500 273 93
3 201 414 84
3 191 0 362
3 154 490 7
3 13 485 283
3 358 405 68
3 227 278 220
3 260 140 228
3 136 175 21
3 354 215 152
3 410 76 222
3 19 321 372
3 68 446 133
3 371 495 367
3 483 349 415
3 354 382 397
3 197 448 144
3 179 314 467
3 207 491 302
3 163 52 161
3 189 297 233
3 128 140 260
3 300 218 223
3 278 502 43
3 355 435 239
3 227 502 278
3 158 161 147
3 55 257 345
3 423 131 271
3 243 194 226
3 220 450 428
3 297 189 82
3 470 270 374
3 484 315 282
3 213 58 66
3 211 157 177
3 437 250 470
3 260 228 413
3 367 421 371
3 342 481 126
3 185 406 303
3 365 137 459
3 55 281 257
3 216 387 143
3 309 18 339
3 458 267 269
3 63 1 374
3 51 118 256
3 97 225 36
3 264 14 299
3 195 143 387
3 161 211 277
3 145 5 375
3 277 163 161
3 272 460 506
3 225 10 36
3 232 355 418
3 151 356 224
3 167 256 125
3 10 376 304
3 146 144 448
3 474 42 32
3 15 135 327
3 128 260 53
3 446 480 107
3 164 378 458
3 230 105 281
3 39 270 250
3 273 472 290
3 507 173 444
3 218 300 230
3 360 130 331
3 457 304 359
3 280 405 358
3 424 462 119
3 266 161 52
3 493 122 326
3 289 72 259
3 46 220 278
3 85 108 454
3 323 69 77
3 119 392 421
3 414 512 370
3 401 134 151
3 289 139 72
3 161 158 211
3 353 394 6
3 274 330 246
3 155 486 227
3 329 120 218
3 226 194 313
3 289 426 139
3 102 197 504
3 313 502 221
3 258 478 191
3 101 486 155
3 358 6 394
3 208 445 214
3 382 354 152
3 462 244 506
3 318 81 464
3 334 377 44
3 457 359 169
3 181 13 335
3 149 148 69
3 143 129 459
3 27 113 511
3 101 139 106
3 362 423 505
3 145 422 5
3 32 42 248
3 108 121 23
3 310 378 237
3 23 121 216
3 353 25 463
3 370 204 414
3 373 88 317
3 147 91 209
3 419 456 510
3 503 344 98
3 183 60 8
3 308 348 33
3 191 362 306
3 26 283 485
3 140 128 200
3 456 437 391
3 219 199 117
3 245 178 259
3 340 94 291
3 478 489 0
3 427 351 190
3 103 487 242
3 19 411 321
3 343 197 52
3 477 24 130
3 399 149 51
3 261 368 84
3 487 451 482
3 46 461 488
3 311 21 301
3 503 209 96
3 421 367 424
3 325 163 277
3 492 31 25
3 274 246 200
3 326 111 493
3 385 391 11
3 402 312 449
3 121 303 406
3 374 1 470
3 378 63 458
3 22 54 145
3 95 294 411
3 114 103 242
3 397 382 237
3 446 68 405
3 147 209 158
3 283 124 468
3 174 333 460
3 132 65 59
3 269 275 312
3 249 376 205
3 221 227 486
3 109 395 213
3 266 127 254
3 205 308 192
3 348 308 205
3 440 404 263
3 30 265 252
3 237 164 397
3 159 291 94
3 85 441 246
3 311 495 59
3 38 366 355
3 72 139 155
3 445 171 214
3 196 133 446
3 330 501 452
3 235 120 329
3 425 108 87
3 177 150 211
3 42 187 64
3 288 451 465
3 184 489 478
3 309 384 255
3 396 322 20
3 133 196 420
3 438 183 187
3 323 77 203
3 437 456 419
3 451 487 379
3 371 210 495
3 464 300 86
3 109 213 336
3 229 417 412
3 160 316 444
3 369 88 290
3 324 24 118
3 315 444 282
3 266 34 127
3 466 194 346
3 70 26 193
3 345 363 471
3 456 391 385
3 424 73 62
3 374 483 63
3 141 262 409
3 218 340 329
3 442 435 30
3 154 419 178
3 511 113 350
3 115 2 384
3 430 365 459
3 181 485 13
3 153 455 52
3 44 438 187
3 209 503 157
3 328 336 422
3 377 100 84
3 439 167 26
3 424 367 73
3 217 471 170
3 331 324 80
3 195 366 38
3 478 0 191
3 350 317 28
3 181 251 416
3 312 491 449
3 302 337 144
3 478 507 184
3 238 390 241
3 197 144 504
3 390 40 107
3 393 360 331
3 224 323 203
3 317 16 28
3 503 453 177
3 499 445 241
3 86 425 452
3 512 201 180
3 436 410 222
3 297 82 402
3 406 185 232
3 440 263 250
3 480 74 107
3 301 325 277
3 328 234 45
3 466 50 284
3 498 323 224
3 296 150 247
3 15 83 179
3 320 164 458
3 63 11 1
3 361 186 285
3 74 90 107
3 202 234 409
3 188 198 351
3 44 187 42
3 466 20 305
3 149 509 442
3 507 315 184
3 393 123 261
3 306 294 258
3 168 288 465
3 458 63 267
3 234 202 166
3 81 381 240
3 407 285 332
3 165 322 396
3 332 37 407
3 372 46 19
3 68 236 56
3 456 14 510
3 105 230 464
3 238 241 319
3 285 186 335
3 173 400 432
3 429 417 327
3 472 369 290
3 256 118 286
3 157 158 209
3 269 312 402
3 146 3 364
3 329 54 61
3 331 83 393
3 497 337 302
3 308 268 253
3 222 93 436
3 390 370 40
3 378 310 11
3 187 183 8
3 335 476 332
3 412 180 229
3 415 398 168
3 104 276 347
3 353 56 25
3 285 335 332
3 3 175 364
3 105 464 81
3 376 249 233
3 9 295 262
3 423 479 198
3 512 40 370
3 30 252 142
3 71 459 137
3 274 501 330
3 496 376 10
3 327 176 123
3 343 52 163
3 145 375 22
3 30 110 235
3 125 32 167
3 333 392 460
3 467 314 135
3 364 207 146
3 17 212 365
3 126 288 85
3 225 97 369
3 479 362 0
3 353 463 322
3 373 317 113
3 125 474 32
3 352 217 47
3 111 54 493
3 28 49 350
3 369 33 348
3 292 461 372
3 384 2 255
3 282 31 492
3 75 243 219
3 505 48 321
3 205 376 496
3 394 357 383
3 469 231 315
3 388 89 287
3 274 128 318
3 452 87 330
3 251 430 129
3 323 51 4
3 380 153 102
3 304 233 359
3 171 445 244
3 307 174 272
3 108 85 87
3 275 269 408
3 486 226 221
3 183 204 319
3 476 335 13
3 303 425 86
3 70 399 439
3 479 0 190
3 228 140 398
3 54 291 493
3 129 195 251
3 210 97 36
3 385 310 92
3 430 186 361
3 403 32 248
3 418 406 232
3 450 220 46
3 237 378 164
3 287 89 473
3 172 473 504
3 234 389 326
3 344 434 60
3 311 296 367
3 250 437 154
3 167 283 26
3 270 41 374
3 68 6 358
3 430 361 365
3 375 5 66
3 166 45 234
3 207 169 491
3 217 170 35
3 347 263 104
3 416 239 193
3 315 484 469
3 43 95 19
3 502 284 116
3 163 325 3
3 466 305 50
3 341 196 412
3 193 485 416
3 68 133 236
3 131 198 188
3 318 206 381
3 473 481 287
3 319 204 238
3 431 215 500
3 84 414 377
3 116 258 294
3 82 320 402
3 379 408 138
3 115 384 488
3 508 371 392
3 505 423 271
3 355 110 435
3 239 416 38
3 281 94 230
3 256 439 399
3 262 2 409
3 105 81 240
3 116 95 43
3 204 183 438
3 397 192 308
3 160 50 305
3 54 340 291
3 387 366 195
3 76 75 222
3 455 17 127
3 172 481 473
3 443 124 248
3 255 217 352
3 484 282 492
3 339 245 428
3 71 143 459
3 178 245 490
3 347 276 206
3 407 17 361
3 242 487 172
3 216 406 387
3 348 205 496
3 199 219 101
3 383 49 280
3 10 225 496
3 406 216 121
3 427 151 134
3 290 67 273
3 293 413 41
3 166 271 45
3 280 174 307
3 508 333 28
3 18 352 47
3 407 361 285
3 318 381 81
3 308 162 397
3 83 57 356
3 76 20 346
3 171 244 462
3 331 80 83
3 295 9 471
3 31 444 316
3 224 401 151
3 368 229 201
3 148 149 442
3 49 174 280
3 136 207 364
3 463 31 316
3 183 319 60
3 417 176 327
3 296 311 301
3 132 304 65
3 214 453 503
3 388 454 23
3 424 62 171
3 334 477 100
3 199 431 500
3 194 75 346
3 79 27 410
3 446 405 480
3 509 149 399
3 309 450 488
3 271 131 45
3 257 363 345
3 464 230 300
3 302 491 497
3 373 27 79
3 440 7 404
3 309 352 18
3 476 13 283
3 17 407 112
3 162 253 354
3 196 341 420
3 137 388 71
3 197 153 52
3 277 211 150
3 222 75 219
3 488 450 46
3 134 109 188
3 92 299 14
3 35 47 217
3 214 171 453
3 262 295 2
3 242 497 114
3 475 180 386
3 397 164 189
3 29 268 33
3 329 265 235
3 19 95 411
3 269 320 458
3 129 430 459
3 80 324 498
3 465 379 168
3 380 102 89
3 388 212 380
3 276 240 381
3 489 190 0
3 241 390 499
3 48 292 321
3 354 253 215
3 65 304 457
3 299 92 382
3 328 422 389
3 444 315 507
3 374 349 483
3 359 449 169
3 74 506 244
3 233 304 376
3 463 25 31
3 104 156 276
3 142 22 66
3 271 48 505
3 118 24 286
3 380 455 153
3 210 317 97
3 270 293 41
3 483 415 138
3 343 448 197
3 353 165 357
3 121 425 303
3 441 85 288
3 422 145 111
3 220 259 72
3 323 498 51
3 131 328 45
3 449 297 402
3 443 64 447
3 414 201 512
3 202 115 292
3 338 210 36
3 492 25 56
3 257 276 156
3 175 136 364
3 269 402 320
3 460 119 506
3 331 130 24
3 299 152 431
3 491 114 497
3 223 232 185
3 212 455 380
3 232 110 355
3 10 132 36
3 447 279 443
3 477 286 24
3 169 136 457
3 443 279 78
3 498 224 57
3 20 433 305
3 138 267 483
3 218 120 223
3 451 288 126
3 166 202 48
3 105 240 281
3 470 1 391
3 207 136 169
3 173 432 160
3 210 16 317
3 455 212 17
3 288 140 441
3 74 499 90
3 449 491 169
3 512 475 40
3 331 24 324
3 426 289 510
3 388 380 89
3 189 164 82
3 3 325 175
3 123 176 261
3 435 509 239
3 66 5 213
3 444 173 160
3 263 53 39
3 87 452 425
3 464 86 452
3 184 231 298
3 281 55 94
3 372 461 46
3 182 232 120
3 15 123 393
3 261 130 360
3 492 236 420
3 503 98 214
3 486 243 226
3 48 202 292
3 302 146 207
3 168 398 288
3 4 51 149
3 267 63 483
3 429 469 484
3 39 250 263
3 468 124 443
3 182 235 110
3 499 74 244
3 414 204 99
3 52 34 266
3 350 49 383
3 119 421 424
3 306 505 411
3 490 339 18
3 487 103 379
3 422 336 5
3 289 178 510
3 468 443 78
3 342 85 454
3 495 210 338
3 122 159 345
3 12 190 489
3 438 44 99
3 165 27 357
3 309 428 450
3 279 434 344
3 79 436 67
3 344 96 279
3 261 360 393
3 47 404 7
3 329 61 265
3 49 333 174
3 178 419 510
3 134 351 427
3 188 328 131
3 70 439 26
3 168 379 415
3 468 476 283
3 79 494 373
3 92 14 385
3 43 502 116
3 391 437 470
3 486 101 243
3 56 6 68
3 258 116 432
3 145 54 111
3 498 324 51
3 503 177 157
3 83 80 57
3 6 56 353
3 230 94 340
3 77 69 148
3 300 223 185
3 120 235 182
3 399 70 509
3 382 152 299
3 140 288 398
3 58 395 203
3 196 446 475
3 36 132 338
3 102 473 89
3 395 109 401
3 164 320 82
3 71 388 23
3 151 427 356
3 264 106 426
3 503 96 344
3 367 296 247
3 203 395 401
3 309 488 384
3 322 165 353
3 137 212 388
3 4 69 323
3 239 38 355
3 174 460 272
3 148 30 142
3 179 83 356
3 185 303 300
3 318 464 501
3 219 243 101
3 504 337 172
3 158 157 211
3 231 184 315
3 447 434 279
3 464 452 501
3 326 389 111
3 54 329 340
3 375 66 22
3 310 385 11
3 199 500 117
3 155 220 72
3 299 106 264
3 508 28 16
3 444 31 282
3 58 213 395
3 128 206 318
3 67 93 273
3 273 500 29
3 150 301 277
3 192 397 189
3 298 489 184
3 257 156 363
3 8 447 64
3 336 188 109
3 284 50 116
3 491 312 275
3 427 179 356
3 128 53 347
3 413 228 398
3 148 442 30
3 40 446 107
3 245 339 490
3 351 134 188
3 487 482 172
3 505 321 411
3 319 208 60
3 269 267 138
3 102 153 197
3 22 142 252
3 8 434 447
3 43 19 278
3 201 229 180
3 443 248 64
3 314 179 427
3 479 423 362
3 23 454 108
3 259 178 289
3 481 172 482
3 251 181 430
3 427 12 314
3 473 102 504
3 255 352 309
3 269 138 408
3 377 414 99
3 27 511 357
3 20 76 396
3 127 34 455
3 187 8 64
3 406 418 366
3 488 461 115
3 343 163 448
3 76 410 396
3 346 75 76
3 308 253 162
3 478 258 400
3 32 403 167
3 316 433 463
3 305 316 160
3 417 229 176
3 135 314 298
3 87 246 330
