ply
format ascii 1.0
comment written by method MeshWithData::saveAsPLY
element vertex 513
property float x
property float y
property float z
element face 1022
property list uchar int vertex_index
end_header
-0.82841021 0.19862676 0.72754204
0.83562994 -0.088709369 0.76164508
-0.24070069 -0.28042582 1.2896893
0.75811577 -0.0045245313 -0.91977006
-0.84119064 -0.45256096 -0.29093179
-0.74540526 -0.47369784 0.57843733
-0.32855794 0.84166706 -0.19920173
0.42892283 -0.23159727 1.2180418
-0.39558831 -0.0074417656 -1.2881268
-0.22096078 -0.46827942 1.1602972
0.74495274 0.54638898 -0.39751524
0.83562994 0.087561488 0.76164508
-0.92751455 0.20868655 0.41590333
-0.2813223 -0.56285709 -1.0225555
0.61521071 0.23614943 1.045318
-0.97399104 0.20166045 -0.092359714
0.35528263 0.76907474 -0.53417325
0.2727612 -0.52805918 -1.0744946
0.23584376 -0.16149718 1.3413348
-0.3156524 0.23986237 1.2799375
-0.15928769 0.81016082 0.57545745
0.73077017 0.25295222 -0.8746627
-0.62672246 -0.65151185 0.42033902
0.35627195 -0.81299549 -0.35649264
-0.90725511 -0.10378536 -0.57074261
-0.40729985 0.81629175 0.16055109
-0.49023819 -0.55562967 -0.86699998
0.050134085 0.90077078 -0.012829006
0.17810898 0.8171863 -0.54097033
0.54369086 0.72322327 0.34824824
-0.59359515 -0.72538704 -0.10509267
-0.48632798 0.75875175 0.33158666
-0.64798152 -0.22984366 -1.0075186
0.6481176 0.68109214 0.14278801
0.41790971 -0.35608801 -1.1485932
0.22170763 -0.46827942 1.1602972
0.63048083 0.62475735 -0.49769598
-0.01823383 -0.37765634 -1.2764223
-0.26611906 -0.80421823 -0.51430941
0.58925128 -0.39917654 0.95072234
-0.49023819 0.5544818 -0.86699998
0.76672798 -0.36618337 0.70506138
-0.64659178 -0.10047099 -1.0612041
-0.29924706 0.36667576 1.2103519
-0.67791724 0.069256678 -1.0268101
-0.62056679 -0.19564547 1.0576782
-0.13268152 0.15268008 1.369222
0.2322575 -0.29678255 1.2850673
-0.55971903 0.013387613 1.1633579
0.0021849216 0.8273958 -0.55542123
-0.37936407 0.6193186 0.87031633
-0.86265343 -0.38419262 -0.39756146
0.53423357 -0.25564301 -1.1214452
0.49098504 -0.55562967 0.86699998
-0.47318992 -0.69262391 0.61138606
-0.1437504 -0.68863183 0.88357621
-0.42787844 0.81486976 -0.054159958
-0.98216307 -0.17282405 -0.046531621
-0.81366533 -0.51383787 0.1857762
0.63853335 0.47133318 -0.79495353
-0.29704919 0.12787993 -1.3260593
-0.54294401 -0.72437114 0.34824824
0.2322575 0.29563469 -1.2850673
0.90642196 -0.035391055 0.59955263
-0.47069225 -0.10126112 -1.2289307
0.76672798 0.36503553 -0.70506138
-0.74420589 -0.54753685 0.39751524
0.32949412 0.82554078 0.32463768
-0.44016889 0.78153044 -0.33113697
-0.82293087 -0.50460243 -0.16798908
-0.60102618 -0.56810248 -0.69555068
0.3082931 -0.78793734 -0.53497154
0.23288508 0.26679248 1.2990432
0.29999387 0.36667576 -1.2103519
-0.19219364 0.61310154 -0.99459636
0.029901585 0.74094671 0.79636467
-0.0014380754 0.8273958 0.55542123
-0.82980323 -0.50559688 -0.018890586
-0.14191353 -0.29661217 -1.3101526
0.15955617 0.88459855 0.15673059
-0.97764236 -0.12032339 -0.23839514
0.097187288 -0.81599182 0.58428347
0.97482854 0.2018401 0.089920104
-1.0011208 -0.0088211568 -0.069664925
-0.82841021 0.19862676 -0.7275421
0.59434199 -0.72538704 -0.10509267
0.097325943 -0.88752621 0.21056437
0.41971481 -0.8203975 -0.01676885
0.40804669 0.81629175 -0.16055109
0.60177302 -0.56810248 -0.69555068
-0.2813223 0.56170923 -1.0225555
0.046995655 -0.22408226 -1.3593978
0.73077017 0.25295222 0.8746627
0.3082931 0.78678948 0.53497159
-0.17951906 -0.77396113 0.67564577
-0.41716287 0.35494012 1.1485932
-0.01753076 -0.089309402 -1.3962293
0.48978525 0.75758582 -0.33065611
-0.13268152 0.15268008 -1.369222
-0.62056679 0.19449759 -1.0576782
-0.83488309 0.087561488 -0.76164508
0.2727612 0.52691132 1.0744946
0.63853335 -0.47248104 -0.79495353
0.95295393 -0.27447233 -0.087822378
0.28206915 -0.56285709 1.0225555
-0.015546538 -0.82886034 0.55318862
0.44397357 0.45481259 1.0423837
-0.37936407 0.6193186 -0.87031633
0.36404395 -0.83629173 -0.15537445
-0.86416364 -0.27023238 0.57127732
-0.40729985 -0.81743962 -0.16055109
-0.49023819 -0.55562967 0.86699998
0.15883783 -0.40693057 -1.2330366
0.17065567 0.87964028 -0.18627691
0.96327186 -0.19318251 -0.24475406
-0.29704919 -0.12902781 1.3260593
-0.44322672 0.45481259 1.0423837
0.28300792 0.72867888 0.72753292
-0.86416364 -0.27023238 -0.57127732
0.15295154 0.59779805 -1.0269954
-0.32855794 -0.84281492 0.19920173
0.17065567 -0.88078815 -0.18627691
-0.2813223 -0.56285709 1.0225555
-0.9448297 0.24471663 -0.26234695
-0.41716287 -0.35608801 -1.1485932
-0.73002332 -0.25410008 -0.8746627
0.72515607 -0.61515641 -0.15691683
0.2999939 -0.36782363 -1.2103519
0.47393677 -0.69262391 0.61138606
0.0087006316 -0.78985739 -0.6798172
-0.90567511 0.034243174 -0.59955263
-0.73719609 -0.14063379 0.92328656
0.7461521 0.47254997 -0.57843733
-0.54294401 0.72322327 -0.34824824
-0.9354499 -0.1286322 0.46050391
-0.92269784 0.34993422 0.072085425
0.82915705 0.19862676 -0.7275421
0.28300792 -0.72982675 -0.72753292
0.95846957 -0.21249789 0.2503249
0.2999939 0.36667576 1.2103519
0.6274693 -0.65151185 0.42033902
-0.41716287 -0.35608801 1.1485932
-0.72854918 -0.61409581 0.1350594
0.058323491 -0.83650291 -0.52148819
0.80459356 -0.22444731 -0.76064277
-0.60102618 -0.56810248 0.69555074
0.83562994 -0.088709362 -0.76164508
0.21438295 -0.15791583 -1.3480577
-0.72440916 -0.61515641 -0.15691683
-0.74420589 -0.54753685 -0.39751524
0.42892283 0.23044939 -1.2180418
-0.97764236 -0.12032339 0.23839514
0.63853335 0.47133318 0.79495353
0.58925128 -0.39917654 -0.95072234
0.52782291 -0.083009355 1.1881405
0.15883783 0.4057827 1.2330366
0.15295154 -0.59894592 1.0269954
0.22507831 0.058800176 -1.3641102
0.27757549 -0.041910641 -1.3451349
-0.24863482 -0.68127573 0.85168171
-0.48165244 0.66422874 0.66562569
0.41143057 -0.11181827 -1.2677571
0.75133896 0.52770305 0.43028021
0.59180039 -0.085130259 -1.1270288
0.93765265 0.22802612 0.35386702
-0.074369684 0.88983548 0.19921367
-0.55598384 -0.080702998 1.159906
-0.62713212 -0.38612655 -0.9163183
0.8341226 -0.47380272 0.25798148
0.93619674 0.12748432 -0.46050391
0.098303989 -0.49019951 1.1693624
0.039059106 0.38485274 -1.2684679
0.83968252 -0.41626379 -0.41285771
-0.60102618 0.56695461 0.69555068
-0.0096031325 0.74185282 -0.7977584
0.73794293 0.13948593 -0.92328656
-0.88623923 0.36726728 -0.32057369
0.23584376 0.16034929 -1.3413348
0.41143057 0.11067039 1.2677571
-0.9889704 0.127492 0.10464035
-0.74540526 0.47254997 -0.57843733
-0.22340046 -0.69822955 -0.83363789
-0.33510616 -0.84993935 0.006767319
-0.44412035 0.11353514 -1.243693
-0.82947451 0.41709363 0.4417932
-0.083558284 -0.8999781 -0.018648177
-0.077216148 -0.66066611 -0.94960696
-0.55971903 -0.01453549 -1.1633579
-0.82841021 -0.19977462 0.7275421
0.92344469 0.34993422 0.072085433
-0.90725511 0.10263748 0.57074261
-0.73002332 0.25295222 0.8746627
0.86173338 0.43981224 0.21207961
-0.48165244 -0.6653766 -0.66562569
-0.077216148 0.65951824 0.94960696
-0.11591205 -0.82471681 -0.54317278
-0.62672246 0.65036398 -0.42033902
0.70057112 -0.29292467 -0.89713913
-0.83488309 -0.088709369 0.76164508
0.38011092 0.6193186 0.87031633
0.54369086 -0.72437114 0.34824824
-0.76598114 0.3650355 -0.70506138
-0.44412035 -0.11468302 1.243693
-0.9041689 -0.37841159 0.14204091
-0.53348672 0.25449511 -1.1214452
0.811463 0.52934825 0.014559792
0.31975117 -0.72761714 0.69848108
0.91210365 0.016172588 -0.58657265
-0.24070069 0.27927792 -1.2896893
0.1426689 -0.067842737 -1.3850813
0.47393677 0.69147605 -0.61138606
0.39902237 0.050916072 -1.2862221
0.38011092 -0.62046647 -0.87031633
-0.82947451 -0.41824153 0.4417932
-0.068351485 0.2357582 -1.3510889
0.60177302 0.56695461 0.69555068
0.13319696 -0.86465025 -0.36173725
0.039059106 -0.3860006 1.2684679
-0.25301126 -0.84277183 0.35545474
0.18557677 0.68454885 0.87524623
0.046995655 0.2229344 1.3593978
-0.097557142 0.48905161 1.1693624
0.11632786 0.80156553 0.6234687
-0.16990882 -0.88078815 0.18627691
-0.9677884 -0.22442243 0.092810951
0.61738807 0.68364328 -0.30145767
0.00051316147 0.57560569 1.079703
-0.01823383 0.37650847 1.2764223
0.66488689 -0.59149659 0.50621158
-0.82947451 0.41709363 -0.4417932
-0.11131717 -0.84197712 0.4801864
-0.84119064 0.45141309 0.29093179
-0.26173872 -0.87120289 -0.067524657
0.89892298 0.36845401 -0.24257644
-0.53348672 -0.25564301 1.1214452
-0.44757012 -0.80650324 0.070142478
-0.54365999 0.75115621 -0.13709973
0.86491048 0.26908448 0.57127732
-0.41716287 0.35494012 -1.1485932
-0.42369032 -0.74496329 -0.52664572
0.0138667 -0.74773294 0.78559124
-0.29924706 0.36667576 -1.2103519
0.90805817 -0.31062549 -0.34767208
0.11282165 0.6227566 1.003947
-0.097557142 0.48905161 -1.1693624
0.27757549 0.04076276 1.3451349
0.54440683 -0.75230408 0.13709973
0.41790971 0.35494012 -1.1485932
-0.51728809 -0.21834199 -1.1541787
0.87119567 0.44526064 -0.032432269
0.59333313 -0.24527554 1.0676956
-0.15111192 -0.77579814 -0.68504453
-0.64737076 -0.68224001 0.14278801
0.66488689 0.59034866 0.50621158
0.23288508 -0.26794037 -1.2990432
-0.068351485 -0.23690608 1.3510889
-0.76598114 -0.36618337 -0.70506138
0.017184675 -0.66305882 0.95252049
-0.62713212 0.38497865 0.9163183
0.21438295 0.15676795 1.3480577
0.60177302 -0.56810248 0.69555068
-0.91753179 0.20812172 -0.46076897
-0.29924706 -0.36782363 1.2103519
0.44397357 -0.45596045 1.0423837
0.57195908 0.34192851 1.0211622
-0.54365999 -0.75230408 0.13709973
0.35554856 -0.22465847 -1.2649505
0.96469086 -0.084609643 0.35776719
0.6274693 0.65036398 0.42033899
1.0011208 -0.024946325 0.092950299
0.70057112 -0.29292467 0.89713913
-0.67791724 -0.070404559 1.0268101
-0.077216156 0.65951824 -0.94960696
0.44091573 0.78153044 0.33113697
0.44091576 -0.78267831 0.33113697
0.98971725 -0.12863988 -0.10464035
0.2105176 -0.69680345 0.84397578
0.53389108 0.050500415 -1.1864189
-0.14191353 0.29546428 1.3101526
-0.13268152 -0.15382797 -1.369222
-0.11281826 0.81033683 -0.59438032
-0.079394609 -0.75292236 0.76604062
-0.61664122 0.68364328 0.30145767
-0.44322672 -0.45596045 -1.0423837
-0.2813223 0.56170923 1.0225555
0.00051316147 -0.57675356 -1.079703
-0.82841021 -0.19977462 -0.72754204
0.63048083 -0.62590522 -0.49769598
0.72929603 -0.61409581 0.1350594
0.35554856 0.22351059 1.2649505
0.42862529 0.81486976 0.054159958
-0.31900433 -0.72761714 0.69848108
-0.39558831 0.0062938868 1.2881268
0.63853335 -0.47248104 0.79495353
-0.57121223 0.34192851 1.0211622
-0.11430591 -0.36747989 1.27068
0.57195908 0.34192851 -1.0211622
0.96853524 0.22327454 -0.092810951
-0.90316331 0.31908303 0.34857431
0.62787896 0.38497865 0.9163183
-0.061123323 -0.88868469 0.23626155
0.60256344 0.21359828 -1.0729853
0.88111371 -0.14319153 -0.63211113
0.067510128 -0.90077078 4.025885e-09
0.86340028 0.38304475 -0.39756146
-0.31900433 0.72646928 0.69848108
-0.64798152 0.22869579 1.0075186
-0.1548501 0.73760378 -0.77531725
0.76869184 0.55061865 0.28189588
0.027453851 -0.060327701 1.4010463
0.82915705 0.19862676 0.72754204
0.62787896 0.38497865 -0.9163183
0.99768001 0.015539826 -0.13803294
-0.15524866 0.59296745 1.0325973
-0.96252501 0.19203463 0.24475406
-0.74420589 0.54638898 0.39751524
-0.42369032 0.74381542 0.52664572
0.35627195 0.81184757 -0.35649264
0.3082931 -0.78793734 0.53497159
-0.37413079 0.23410243 -1.2480263
0.9783892 0.11917551 0.23839514
-0.47069225 0.10011324 1.2289307
-0.1744509 0.86603463 0.29961333
-0.92269784 -0.35108209 -0.072085425
-0.92083323 -0.21754062 -0.43532515
0.67866409 0.069256678 -1.0268101
-0.44322672 -0.45596045 1.0423837
-0.9041689 0.37726372 -0.14204091
-0.69982427 -0.29292467 0.89713913
-0.44016889 -0.78267831 0.33113697
0.39846253 -0.81829816 0.19888116
-0.96469009 -0.062426355 -0.36762777
-0.097557142 -0.49019951 -1.1693624
0.15672477 0.77034998 -0.6949144
-0.77084297 -0.00069970457 -0.89627945
-0.15524866 -0.59411532 -1.0325973
-0.76598114 -0.36618337 0.70506138
0.86491048 -0.27023238 -0.57127732
0.60177302 0.56695461 -0.69555068
0.22507831 -0.059948057 1.3641102
-0.30754626 -0.78793734 0.53497159
-0.72854918 0.61294794 -0.1350594
0.61738807 -0.68479115 -0.3014577
0.62131363 -0.19564547 -1.0576782
-0.15979199 0.024339387 -1.3849386
-0.15524864 -0.59411532 1.0325973
-0.071673334 0.75427973 0.76178122
0.38011092 -0.62046647 0.87031633
0.73455989 0.61035585 0.076482639
0.86491048 -0.27023235 0.57127732
0.14663528 0.85656649 -0.38710144
-0.90567511 -0.035391055 0.59955263
0.093746431 -0.23056714 1.3500444
-0.25484502 0.87121218 0.073871873
0.7461521 0.47254997 0.57843733
-0.32836372 -0.82631427 -0.32339764
-0.99821359 -0.037464533 0.11789095
-0.083834402 0.89815438 -0.057385366
-0.23753391 0.84171861 -0.37862602
0.93625402 0.2428285 -0.33307028
-0.96394402 0.083461769 -0.35776719
0.11282165 -0.62390447 -1.003947
-0.73319471 0.13674638 0.93080086
0.00051316392 -0.57675356 1.079703
0.83562994 0.087561488 -0.76164508
0.18557677 -0.68569672 -0.87524623
-0.18442528 -0.8527264 -0.37874103
0.44397357 0.45481259 -1.0423837
-0.86416364 0.26908448 -0.57127732
0.59434199 0.72423911 -0.10509267
-0.58850443 0.39802867 -0.95072234
0.38011092 0.6193186 -0.87031633
-0.28778782 0.14607181 1.3243439
0.2629647 0.86798322 -0.096214868
0.82915705 -0.19977462 0.72754204
-0.66414005 -0.59149659 0.50621158
0.81159163 0.51073682 -0.21557574
-0.73719609 0.13948593 -0.92328656
0.90800196 0.10263746 0.57074261
0.92344469 -0.35108209 0.072085425
0.49098501 -0.55562967 -0.86699998
0.17153515 -0.76609713 0.70136929
0.76672798 0.3650355 0.70506138
-0.065920115 0.87077171 -0.34820876
-0.13268152 -0.15382797 1.369222
0.73794293 0.13948593 0.92328656
-0.66414005 0.59034872 -0.50621158
-0.04555624 -0.86530346 -0.3880828
0.47393677 -0.69262391 -0.61138606
-0.58850443 -0.39917654 0.95072234
-0.44322672 0.45481259 -1.0423837
0.75811577 -0.0045245313 0.91977006
0.24938166 0.68012786 -0.85168171
-0.98315156 0.10018145 -0.22285584
-0.16990882 0.87964028 -0.18627691
-0.88623923 -0.36841518 0.32057369
-0.045556244 0.86415559 0.3880828
0.86340028 0.38304475 0.39756146
0.74495274 -0.54753685 0.39751524
-0.74540526 -0.47369784 -0.57843733
-0.63778651 0.47133318 0.79495353
-0.93550718 -0.24397638 0.33307028
0.99424791 0.11153694 0.0093180435
-0.57121223 -0.34307641 -1.0211622
0.2999939 -0.36782363 1.2103519
-0.30754626 0.78678948 -0.53497159
-0.045709446 -0.89601886 -0.16717754
0.098303989 -0.49019951 -1.1693624
0.97473788 -0.20280832 0.092359714
-0.37413079 -0.23525031 1.2480263
0.066344649 0.8763541 0.31458682
-0.51728809 0.21719411 1.1541787
-0.74420589 0.54638898 -0.39751524
0.7461521 -0.47369784 0.57843733
-0.69982427 0.29177678 -0.89713913
0.86340028 -0.38419262 0.39756146
-0.31900433 -0.72761714 -0.69848108
-0.81366533 0.51269001 -0.1857762
-0.19297975 -0.87375265 -0.21806282
0.55560666 0.076777302 1.1613839
-0.64737076 0.68109214 -0.14278801
0.28206915 0.56170923 -1.0225555
-0.63778651 -0.47248104 0.79495358
-0.77084297 -0.00044817361 0.89627945
0.22170763 0.46713153 -1.1602972
0.22089384 -0.88022912 -2.0247295e-09
0.41790971 0.35494012 1.1485932
-0.96827781 0.046915121 0.35730582
0.1426689 0.066694856 1.3850813
-0.82980323 0.50444901 0.018890586
-0.010026432 -0.73055458 -0.82432342
0.49098504 0.5544818 0.86699998
-0.49023819 0.5544818 0.86699998
-0.24946404 0.81596577 0.48385546
-0.24834715 -0.060238138 -1.3554265
-0.48632798 -0.75989962 -0.33158666
0.18776411 0.85010886 0.3815631
0.6269505 -0.06842383 1.0891941
-0.55598384 0.079555117 -1.159906
-0.63778651 -0.47248104 -0.79495353
0.41790971 -0.35608801 1.1485932
0.6481176 -0.68224001 0.14278801
-0.61664122 -0.68479115 -0.30145767
-0.3156524 -0.24101023 -1.2799375
-0.62973398 0.62475735 0.49769598
-0.11430591 0.36633199 -1.27068
-0.47318992 0.69147605 -0.61138606
-0.28778782 -0.14721969 -1.3243439
0.73394156 -0.13789426 -0.93080086
0.9783892 0.11917551 -0.23839514
-0.01753076 0.088161521 1.3962293
0.82428527 -0.5125227 -0.041339435
0.25363469 -0.86654508 0.16598839
0.093746431 0.22941926 -1.3500444
0.48978525 -0.75873369 -0.33065611
0.44397354 -0.45596045 -1.0423837
0.64994872 0.084895626 1.0623797
0.86491048 0.26908448 -0.57127732
0.96543694 0.061278477 0.36762777
0.13886179 -0.78052884 -0.67633247
0.11137015 0.6816287 -0.90575129
-0.24834715 0.059090257 1.3554265
0.098303989 0.48905161 -1.1693624
-0.32836372 0.82516634 0.32339764
0.12344471 -0.86193883 0.3848227
0.83909971 -0.49029043 0.10086546
-0.22340046 0.69708169 0.83363789
-0.96043718 0.24890786 0.064301535
-0.29924706 -0.36782363 -1.2103519
-0.82293087 0.50345457 0.16798908
0.73394156 -0.13789424 0.93080086
-0.097557142 -0.49019951 1.1693624
0.54440683 0.75115621 0.13709973
0.7461521 -0.47369784 -0.57843733
-0.73319471 -0.13789426 -0.93080086
-0.60102618 0.56695461 -0.69555074
-0.22096078 -0.46827942 -1.1602972
-0.83488309 -0.088709369 -0.76164508
-0.76598114 0.3650355 0.70506138
-0.83488309 0.087561488 0.76164508
-0.28226107 0.72867888 -0.72753292
0.74495274 -0.54753685 -0.39751524
0.81159163 -0.51188475 -0.21557571
0.91827863 -0.20926961 0.46076897
-0.72440916 0.61400855 0.15691683
-0.37936407 -0.62046647 -0.87031633
0.098303989 0.48905161 1.1693624
0.89043218 -0.40159455 -0.16080225
-0.15979199 -0.025487265 1.3849386
-0.86416364 0.26908448 0.57127732
0.39902237 -0.052063949 1.2862221
0.97137183 -0.042533949 -0.34767962
-0.59359515 0.72423911 0.10509267
-0.37936407 -0.62046647 0.87031633
0.25592142 0.86731178 0.13072221
0.49098501 0.5544818 -0.86699998
0.72515601 0.61400855 -0.15691683
0.9282614 -0.20983443 -0.41590333
-0.95200485 -0.24942486 -0.2047666
-0.22096078 0.46713153 -1.1602972
0.47393677 0.69147605 0.61138606
0.29392049 -0.83139628 0.35480344
-0.22096078 0.46713153 1.1602972
0.027453851 0.059179824 -1.4010463
0.76672798 -0.3661834 -0.70506138
-0.64659178 0.099323109 1.0612041
0.00051316392 0.57560569 -1.079703
-0.74540526 0.47254997 0.57843733
0.31975117 0.72646928 -0.69848108
-0.62973398 -0.62590522 -0.49769598
0.49868411 0.22398667 1.1653001
0.033610296 0.88370889 -0.2679446
-0.63778651 0.47133318 -0.79495358
3 263 347 53
3 142 58 77
3 51 324 118
3 135 469 429
3 385 14 456
3 231 469 135
3 173 507 400
3 383 357 511
3 457 136 65
3 475 512 180
3 2 295 255
3 144 337 504
3 295 217 255
3 123 15 327
3 101 106 199
3 345 159 55
3 398 415 413
3 409 2 115
3 58 142 66
3 316 305 433
3 408 103 275
3 342 287 481
3 294 306 411
3 100 477 130
3 198 479 351
3 341 429 484
3 59 65 311
3 256 399 51
3 441 200 246
3 191 306 258
3 359 233 297
3 107 90 390
3 75 194 243
3 264 426 510
3 142 77 148
3 224 356 57
3 135 15 467
3 212 137 365
3 53 293 39
3 217 295 471
3 252 265 61
3 257 240 276
3 240 257 281
3 436 93 67
3 345 9 122
3 268 308 33
3 406 366 387
3 170 471 363
3 171 462 424
3 103 408 379
3 206 276 381
3 242 172 337
3 393 83 15
3 494 290 373
3 19 46 278
3 226 313 221
3 227 220 155
3 477 474 286
3 201 84 368
3 37 78 91
3 130 261 84
3 42 64 248
3 159 122 493
3 361 17 365
3 428 309 339
3 143 195 129
3 55 159 94
3 37 476 78
3 388 287 454
3 117 93 222
3 263 35 104
3 422 111 389
3 78 476 468
3 93 117 500
3 362 505 306
3 389 234 328
3 371 421 392
3 317 88 97
3 33 472 29
3 84 100 130
3 30 435 110
3 238 204 390
3 141 234 326
3 283 167 403
3 241 445 208
3 77 58 203
3 510 14 264
3 349 41 415
3 359 297 449
3 509 70 193
3 246 87 85
3 280 307 480
3 216 143 71
3 251 38 416
3 342 126 85
3 386 180 412
3 21 311 65
3 274 200 128
3 307 74 480
3 259 428 245
3 136 21 65
3 256 286 125
3 461 292 115
3 501 274 318
3 431 199 106
3 336 213 5
3 373 113 27
3 437 419 154
3 86 300 303
3 410 436 79
3 476 37 332
3 241 208 319
3 249 205 192
3 301 175 325
3 35 404 47
3 181 186 430
3 445 499 244
3 165 396 410
3 178 490 154
3 237 382 310
3 98 208 214
3 379 465 451
3 478 400 507
3 233 249 189
3 60 208 98
3 60 98 344
3 394 353 357
3 455 34 52
3 427 190 12
3 12 298 314
3 200 441 140
3 242 337 497
3 415 41 413
3 96 91 279
3 18 7 490
3 232 223 120
3 403 124 283
3 7 440 250
3 369 97 88
3 67 494 79
3 63 378 11
3 474 334 42
3 156 104 35
3 73 367 247
3 301 150 296
3 423 198 131
3 23 216 71
3 1 11 391
3 26 485 193
3 156 170 363
3 193 239 509
3 492 420 341
3 215 268 500
3 453 171 62
3 368 176 229
3 119 462 506
3 293 53 260
3 438 99 204
3 460 392 119
3 91 96 209
3 417 341 412
3 110 232 182
3 294 95 116
3 114 491 275
3 204 370 390
3 509 435 442
3 47 7 18
3 496 225 369
3 334 100 377
3 42 334 44
3 256 167 439
3 477 334 474
3 61 22 252
3 336 328 188
3 49 28 333
3 383 358 394
3 236 492 56
3 279 91 78
3 124 403 248
3 495 311 367
3 230 340 218
3 475 446 40
3 195 38 251
3 67 290 494
3 108 425 121
3 386 412 196
3 215 431 152
3 482 126 481
3 341 417 429
3 371 508 210
3 22 61 54
3 495 338 59
3 35 170 156
3 177 453 62
3 109 134 401
3 62 150 177
3 489 298 12
3 132 59 338
3 502 227 221
3 470 250 270
3 432 116 50
3 262 326 9
3 373 290 88
3 496 369 348
3 249 192 189
3 301 21 175
3 292 372 321
3 202 409 115
3 304 132 10
3 155 139 101
3 112 91 254
3 138 415 379
3 409 234 141
3 434 8 60
3 272 506 74
3 451 126 482
3 135 429 327
3 141 326 262
3 254 127 112
3 9 345 471
3 263 404 35
3 117 222 219
3 37 91 112
3 480 405 280
3 432 50 160
3 112 407 37
3 484 492 341
3 176 368 261
3 69 4 149
3 400 258 432
3 401 224 203
3 466 284 313
3 57 80 498
3 62 73 150
3 44 377 99
3 310 382 92
3 410 27 165
3 20 466 346
3 299 431 106
3 293 270 39
3 112 127 17
3 265 30 235
3 358 383 280
3 499 390 90
3 502 313 284
3 271 166 48
3 181 335 186
3 466 313 194
3 74 307 272
3 259 220 428
3 333 508 392
3 479 190 351
3 355 366 418
3 9 326 122
3 159 493 291
3 247 150 73
3 113 317 350
3 206 128 347
3 144 146 302
3 342 454 287
3 3 448 163
3 20 322 433
3 374 41 349
3 147 161 266
3 179 467 15
3 354 397 162
3 146 448 3
3 350 383 511
3 293 260 413
3 266 254 147
3 508 16 210
3 135 298 231
3 114 275 103
3 475 386 196
3 369 472 33
3 154 7 250
3 463 433 322
3 91 147 254
3 273 29 472
3 420 236 133
3 125 286 474
3 181 416 485
3 29 500 268
3 253 268 215
3 106 139 426
3 500 273 93
3 201 414 84
3 191 0 362
3 154 490 7
3 13 485 283
3 358 405 68
3 227 278 220
3 260 140 228
3 136 175 21
3 354 215 152
3 410 76 222
3 19 321 372
3 68 446 133
3 371 495 367
3 483 349 415
3 354 382 397
3 197 448 144
3 179 314 467
3 207 491 302
3 163 52 161
3 189 297 233
3 128 140 260
3 300 218 223
3 278 502 43
3 355 435 239
3 227 502 278
3 158 161 147
3 55 257 345
3 423 131 271
3 243 194 226
3 220 450 428
3 297 189 82
3 470 270 374
3 484 315 282
3 213 58 66
3 211 157 177
3 437 250 470
3 260 228 413
3 367 421 371
3 342 481 126
3 185 406 303
3 365 137 459
3 55 281 257
3 216 387 143
3 309 18 339
3 458 267 269
3 63 1 374
3 51 118 256
3 97 225 36
3 264 14 299
3 195 143 387
3 161 211 277
3 145 5 375
3 277 163 161
3 272 460 506
3 225 10 36
3 232 355 418
3 151 356 224
3 167 256 125
3 10 376 304
3 146 144 448
3 474 42 32
3 15 135 327
3 128 260 53
3 446 480 107
3 164 378 458
3 230 105 281
3 39 270 250
3 273 472 290
3 507 173 444
3 218 300 230
3 360 130 331
3 457 304 359
3 280 405 358
3 424 462 119
3 266 161 52
3 493 122 326
3 289 72 259
3 46 220 278
3 85 108 454
3 323 69 77
3 119 392 421
3 414 512 370
3 401 134 151
3 289 139 72
3 161 158 211
3 353 394 6
3 274 330 246
3 155 486 227
3 329 120 218
3 226 194 313
3 289 426 139
3 102 197 504
3 313 502 221
3 258 478 191
3 101 486 155
3 358 6 394
3 208 445 214
3 382 354 152
3 462 244 506
3 318 81 464
3 334 377 44
3 457 359 169
3 181 13 335
3 149 148 69
3 143 129 459
3 27 113 511
3 101 139 106
3 362 423 505
3 145 422 5
3 32 42 248
3 108 121 23
3 310 378 237
3 23 121 216
3 353 25 463
3 370 204 414
3 373 88 317
3 147 91 209
3 419 456 510
3 503 344 98
3 183 60 8
3 308 348 33
3 191 362 306
3 26 283 485
3 140 128 200
3 456 437 391
3 219 199 117
3 245 178 259
3 340 94 291
3 478 489 0
3 427 351 190
3 103 487 242
3 19 411 321
3 343 197 52
3 477 24 130
3 399 149 51
3 261 368 84
3 487 451 482
3 46 461 488
3 311 21 301
3 503 209 96
3 421 367 424
3 325 163 277
3 492 31 25
3 274 246 200
3 326 111 493
3 385 391 11
3 402 312 449
3 121 303 406
3 374 1 470
3 378 63 458
3 22 54 145
3 95 294 411
3 114 103 242
3 397 382 237
3 446 68 405
3 147 209 158
3 283 124 468
3 174 333 460
3 132 65 59
3 269 275 312
3 249 376 205
3 221 227 486
3 109 395 213
3 266 127 254
3 205 308 192
3 348 308 205
3 440 404 263
3 30 265 252
3 237 164 397
3 159 291 94
3 85 441 246
3 311 495 59
3 38 366 355
3 72 139 155
3 445 171 214
3 196 133 446
3 330 501 452
3 235 120 329
3 425 108 87
3 177 150 211
3 42 187 64
3 288 451 465
3 184 489 478
3 309 384 255
3 396 322 20
3 133 196 420
3 438 183 187
3 323 77 203
3 437 456 419
3 451 487 379
3 371 210 495
3 464 300 86
3 109 213 336
3 229 417 412
3 160 316 444
3 369 88 290
3 324 24 118
3 315 444 282
3 266 34 127
3 466 194 346
3 70 26 193
3 345 363 471
3 456 391 385
3 424 73 62
3 374 483 63
3 141 262 409
3 218 340 329
3 442 435 30
3 154 419 178
3 511 113 350
3 115 2 384
3 430 365 459
3 181 485 13
3 153 455 52
3 44 438 187
3 209 503 157
3 328 336 422
3 377 100 84
3 439 167 26
3 424 367 73
3 217 471 170
3 331 324 80
3 195 366 38
3 478 0 191
3 350 317 28
3 181 251 416
3 312 491 449
3 302 337 144
3 478 507 184
3 238 390 241
3 197 144 504
3 390 40 107
3 393 360 331
3 224 323 203
3 317 16 28
3 503 453 177
3 499 445 241
3 86 425 452
3 512 201 180
3 436 410 222
3 297 82 402
3 406 185 232
3 440 263 250
3 480 74 107
3 301 325 277
3 328 234 45
3 466 50 284
3 498 323 224
3 296 150 247
3 15 83 179
3 320 164 458
3 63 11 1
3 361 186 285
3 74 90 107
3 202 234 409
3 188 198 351
3 44 187 42
3 466 20 305
3 149 509 442
3 507 315 184
3 393 123 261
3 306 294 258
3 168 288 465
3 458 63 267
3 234 202 166
3 81 381 240
3 407 285 332
3 165 322 396
3 332 37 407
3 372 46 19
3 68 236 56
3 456 14 510
3 105 230 464
3 238 241 319
3 285 186 335
3 173 400 432
3 429 417 327
3 472 369 290
3 256 118 286
3 157 158 209
3 269 312 402
3 146 3 364
3 329 54 61
3 331 83 393
3 497 337 302
3 308 268 253
3 222 93 436
3 390 370 40
3 378 310 11
3 187 183 8
3 335 476 332
3 412 180 229
3 415 398 168
3 104 276 347
3 353 56 25
3 285 335 332
3 3 175 364
3 105 464 81
3 376 249 233
3 9 295 262
3 423 479 198
3 512 40 370
3 30 252 142
3 71 459 137
3 274 501 330
3 496 376 10
3 327 176 123
3 343 52 163
3 145 375 22
3 30 110 235
3 125 32 167
3 333 392 460
3 467 314 135
3 364 207 146
3 17 212 365
3 126 288 85
3 225 97 369
3 479 362 0
3 353 463 322
3 373 317 113
3 125 474 32
3 352 217 47
3 111 54 493
3 28 49 350
3 369 33 348
3 292 461 372
3 384 2 255
3 282 31 492
3 75 243 219
3 505 48 321
3 205 376 496
3 394 357 383
3 469 231 315
3 388 89 287
3 274 128 318
3 452 87 330
3 251 430 129
3 323 51 4
3 380 153 102
3 304 233 359
3 171 445 244
3 307 174 272
3 108 85 87
3 275 269 408
3 486 226 221
3 183 204 319
3 476 335 13
3 303 425 86
3 70 399 439
3 479 0 190
3 228 140 398
3 54 291 493
3 129 195 251
3 210 97 36
3 385 310 92
3 430 186 361
3 403 32 248
3 418 406 232
3 450 220 46
3 237 378 164
3 287 89 473
3 172 473 504
3 234 389 326
3 344 434 60
3 311 296 367
3 250 437 154
3 167 283 26
3 270 41 374
3 68 6 358
3 430 361 365
3 375 5 66
3 166 45 234
3 207 169 491
3 217 170 35
3 347 263 104
3 416 239 193
3 315 484 469
3 43 95 19
3 502 284 116
3 163 325 3
3 466 305 50
3 341 196 412
3 193 485 416
3 68 133 236
3 131 198 188
3 318 206 381
3 473 481 287
3 319 204 238
3 431 215 500
3 84 414 377
3 116 258 294
3 82 320 402
3 379 408 138
3 115 384 488
3 508 371 392
3 505 423 271
3 355 110 435
3 239 416 38
3 281 94 230
3 256 439 399
3 262 2 409
3 105 81 240
3 116 95 43
3 204 183 438
3 397 192 308
3 160 50 305
3 54 340 291
3 387 366 195
3 76 75 222
3 455 17 127
3 172 481 473
3 443 124 248
3 255 217 352
3 484 282 492
3 339 245 428
3 71 143 459
3 178 245 490
3 347 276 206
3 407 17 361
3 242 487 172
3 216 406 387
3 348 205 496
3 199 219 101
3 383 49 280
3 10 225 496
3 406 216 121
3 427 151 134
3 290 67 273
3 293 413 41
3 166 271 45
3 280 174 307
3 508 333 28
3 18 352 47
3 407 361 285
3 318 381 81
3 308 162 397
3 83 57 356
3 76 20 346
3 171 244 462
3 331 80 83
3 295 9 471
3 31 444 316
3 224 401 151
3 368 229 201
3 148 149 442
3 49 174 280
3 136 207 364
3 463 31 316
3 183 319 60
3 417 176 327
3 296 311 301
3 132 304 65
3 214 453 503
3 388 454 23
3 424 62 171
3 334 477 100
3 199 431 500
3 194 75 346
3 79 27 410
3 446 405 480
3 509 149 399
3 309 450 488
3 271 131 45
3 257 363 345
3 464 230 300
3 302 491 497
3 373 27 79
3 440 7 404
3 309 352 18
3 476 13 283
3 17 407 112
3 162 253 354
3 196 341 420
3 137 388 71
3 197 153 52
3 277 211 150
3 222 75 219
3 488 450 46
3 134 109 188
3 92 299 14
3 35 47 217
3 214 171 453
3 262 295 2
3 242 497 114
3 475 180 386
3 397 164 189
3 29 268 33
3 329 265 235
3 19 95 411
3 269 320 458
3 129 430 459
3 80 324 498
3 465 379 168
3 380 102 89
3 388 212 380
3 276 240 381
3 489 190 0
3 241 390 499
3 48 292 321
3 354 253 215
3 65 304 457
3 299 92 382
3 328 422 389
3 444 315 507
3 374 349 483
3 359 449 169
3 74 506 244
3 233 304 376
3 463 25 31
3 104 156 276
3 142 22 66
3 271 48 505
3 118 24 286
3 380 455 153
3 210 317 97
3 270 293 41
3 483 415 138
3 343 448 197
3 353 165 357
3 121 425 303
3 441 85 288
3 422 145 111
3 220 259 72
3 323 498 51
3 131 328 45
3 449 297 402
3 443 64 447
3 414 201 512
3 202 115 292
3 338 210 36
3 492 25 56
3 257 276 156
3 175 136 364
3 269 402 320
3 460 119 506
3 331 130 24
3 299 152 431
3 491 114 497
3 223 232 185
3 212 455 380
3 232 110 355
3 10 132 36
3 447 279 443
3 477 286 24
3 169 136 457
3 443 279 78
3 498 224 57
3 20 433 305
3 138 267 483
3 218 120 223
3 451 288 126
3 166 202 48
3 105 240 281
3 470 1 391
3 207 136 169
3 173 432 160
3 210 16 317
3 455 212 17
3 288 140 441
3 74 499 90
3 449 491 169
3 512 475 40
3 331 24 324
3 426 289 510
3 388 380 89
3 189 164 82
3 3 325 175
3 123 176 261
3 435 509 239
3 66 5 213
3 444 173 160
3 263 53 39
3 87 452 425
3 464 86 452
3 184 231 298
3 281 55 94
3 372 461 46
3 182 232 120
3 15 123 393
3 261 130 360
3 492 236 420
3 503 98 214
3 486 243 226
3 48 202 292
3 302 146 207
3 168 398 288
3 4 51 149
3 267 63 483
3 429 469 484
3 39 250 263
3 468 124 443
3 182 235 110
3 499 74 244
3 414 204 99
3 52 34 266
3 350 49 383
3 119 421 424
3 306 505 411
3 490 339 18
3 487 103 379
3 422 336 5
3 289 178 510
3 468 443 78
3 342 85 454
3 495 210 338
3 122 159 345
3 12 190 489
3 438 44 99
3 165 27 357
3 309 428 450
3 279 434 344
3 79 436 67
3 344 96 279
3 261 360 393
3 47 404 7
3 329 61 265
3 49 333 174
3 178 419 510
3 134 351 427
3 188 328 131
3 70 439 26
3 168 379 415
3 468 476 283
3 79 494 373
3 92 14 385
3 43 502 116
3 391 437 470
3 486 101 243
3 56 6 68
3 258 116 432
3 145 54 111
3 498 324 51
3 503 177 157
3 83 80 57
3 6 56 353
3 230 94 340
3 77 69 148
3 300 223 185
3 120 235 182
3 399 70 509
3 382 152 299
3 140 288 398
3 58 395 203
3 196 446 475
3 36 132 338
3 102 473 89
3 395 109 401
3 164 320 82
3 71 388 23
3 151 427 356
3 264 106 426
3 503 96 344
3 367 296 247
3 203 395 401
3 309 488 384
3 322 165 353
3 137 212 388
3 4 69 323
3 239 38 355
3 174 460 272
3 148 30 142
3 179 83 356
3 185 303 300
3 318 464 501
3 219 243 101
3 504 337 172
3 158 157 211
3 231 184 315
3 447 434 279
3 464 452 501
3 326 389 111
3 54 329 340
3 375 66 22
3 310 385 11
3 199 500 117
3 155 220 72
3 299 106 264
3 508 28 16
3 444 31 282
3 58 213 395
3 128 206 318
3 67 93 273
3 273 500 29
3 150 301 277
3 192 397 189
3 298 489 184
3 257 156 363
3 8 447 64
3 336 188 109
3 284 50 116
3 491 312 275
3 427 179 356
3 128 53 347
3 413 228 398
3 148 442 30
3 40 446 107
3 245 339 490
3 351 134 188
3 487 482 172
3 505 321 411
3 319 208 60
3 269 267 138
3 102 153 197
3 22 142 252
3 8 434 447
3 43 19 278
3 201 229 180
3 443 248 64
3 314 179 427
3 479 423 362
3 23 454 108
3 259 178 289
3 481 172 482
3 251 181 430
3 427 12 314
3 473 102 504
3 255 352 309
3 269 138 408
3 377 414 99
3 27 511 357
3 20 76 396
3 127 34 455
3 187 8 64
3 406 418 366
3 488 461 115
3 343 163 448
3 76 410 396
3 346 75 76
3 308 253 162
3 478 258 400
3 32 403 167
3 316 433 463
3 305 316 160
3 417 229 176
3 135 314 298
3 87 246 330
