ply
format ascii 1.0
comment written by method MeshWithData::saveAsPLY
element vertex 513
property float x
property float y
property float z
element face 1022
property list uchar int vertex_index
end_header
-0.49704611 0.22069639 0.51967287
0.50137794 -0.098565966 0.54403222
-0.14442042 -0.31158423 0.92120665
0.45486945 -0.0050272569 -0.65697861
-0.50471437 -0.50284553 -0.20780842
-0.44724315 -0.52633095 0.4131695
-0.19713476 0.93518561 -0.14228696
0.25735369 -0.2573303 0.87002981
-0.23735298 -0.0082686283 -0.92009056
-0.13257647 -0.52031046 0.82878369
0.44697165 0.60709888 -0.28393945
0.50137794 0.097290546 0.54403222
-0.55650872 0.23187394 0.29707381
-0.16879338 -0.62539679 -0.73039675
0.36912644 0.26238826 0.7466557
-0.58439463 0.22406717 -0.065971226
0.21316957 0.85452747 -0.38155231
0.16365671 -0.58673245 -0.76749617
0.14150625 -0.1794413 0.95809627
-0.18939143 0.26651374 0.91424108
-0.095572613 0.90017867 0.41104102
0.43846211 0.28105801 -0.62475908
-0.37603348 -0.72390205 0.30024216
0.21376318 -0.9033283 -0.2546376
-0.54435307 -0.11531706 -0.40767327
-0.24437991 0.90699083 0.11467935
-0.2941429 -0.61736631 -0.6192857
0.030080451 1.0008564 -0.0091635752
0.10686538 0.90798479 -0.38640738
0.32621452 0.80358142 0.24874875
-0.35615709 -0.80598557 -0.075066194
-0.29179677 0.84305751 0.23684761
-0.38878891 -0.25538185 -0.71965617
0.38887057 0.75676906 0.10199144
0.25074583 -0.39565334 -0.82042372
0.13302457 -0.52031046 0.82878369
0.37828851 0.69417483 -0.35549712
-0.010940298 -0.41961816 -0.91173023
-0.15967144 -0.89357579 -0.36736384
0.35355076 -0.44352949 0.6790874
-0.2941429 0.61609089 -0.6192857
0.46003678 -0.40687042 0.50361526
-0.38795507 -0.11163443 -0.75800294
-0.17954823 0.40741751 0.86453706
-0.40675035 0.076951869 -0.73343575
-0.37234008 -0.21738385 0.7554844
-0.07960891 0.16964453 0.97801578
0.1393545 -0.32975841 0.91790521
-0.3358314 0.014875126 0.83096987
0.0013109529 0.91932863 -0.39672947
-0.22761844 0.68813175 0.62165451
-0.51759207 -0.42688069 -0.28397247
0.32054013 -0.28404778 -0.80103225
0.29459101 -0.61736631 0.6192857
-0.28391394 -0.76958215 0.43670434
-0.086250238 -0.76514649 0.63112587
-0.25672707 0.90541083 -0.038685683
-0.58929783 -0.19202672 -0.033236872
-0.4881992 -0.57093096 0.13269728
0.38312 0.52370352 -0.56782395
-0.17822951 0.14208882 -0.94718522
-0.32576641 -0.80485684 0.24874875
0.1393545 0.32848299 -0.91790521
0.54385316 -0.039323393 0.42825186
-0.28241536 -0.11251236 -0.87780768
0.46003678 0.40559503 -0.50361526
-0.44652355 -0.6083743 0.28393945
0.19769648 0.9172675 0.23188406
-0.26410133 0.86836714 -0.2365264
-0.49375853 -0.56066936 -0.1199922
-0.3606157 -0.63122499 -0.49682191
0.18497586 -0.87548596 -0.38212252
0.13973105 0.2964361 0.92788798
0.17999633 0.40741751 -0.86453706
-0.11531618 0.68122393 -0.71042597
0.017940952 0.82327414 0.56883192
-0.00086284528 0.91932863 0.39672947
-0.49788195 -0.56177431 -0.013493275
-0.085148118 -0.32956907 -0.93582332
0.095733702 0.98288727 0.11195043
-0.5865854 -0.13369265 -0.17028224
0.058312371 -0.90665758 0.41734532
0.5848971 0.22426678 0.064228646
-0.60067248 -0.0098012853 -0.049760662
-0.49704611 0.22069639 -0.51967293
0.3566052 -0.80598557 -0.075066194
0.058395565 -0.98614025 0.15040313
0.25182888 -0.91155279 -0.011977751
0.24482802 0.90699083 -0.11467935
0.36106381 -0.63122499 -0.49682191
-0.16879338 0.62412137 -0.73039675
0.028197393 -0.2489803 -0.97099841
0.43846211 0.28105801 0.62475908
0.18497586 0.87421054 0.38212255
-0.10771143 -0.8599568 0.48260412
-0.25029773 0.39437792 0.82042372
-0.010518456 -0.099232666 -0.99730659
0.29387116 0.84176201 -0.23618293
-0.07960891 0.16964453 -0.97801578
-0.37234008 0.21610843 -0.7554844
-0.50092983 0.097290546 -0.54403222
0.16365671 0.58545703 0.76749617
0.38312 -0.52497894 -0.56782395
0.57177234 -0.30496925 -0.062730268
0.16924149 -0.62539679 0.73039675
-0.0093279229 -0.92095596 0.39513475
0.26638415 0.50534731 0.74455976
-0.22761844 0.68813175 -0.62165451
0.21842638 -0.92921305 -0.11098175
-0.51849818 -0.30025819 0.40805522
-0.24437991 -0.90826625 -0.11467935
-0.2941429 -0.61736631 0.6192857
0.095302694 -0.45214507 -0.88074046
0.1023934 0.97737807 -0.13305494
0.57796311 -0.21464723 -0.17482433
-0.17822951 -0.14336424 0.94718522
-0.26593605 0.50534731 0.74455976
0.16980475 0.80964321 0.51966637
-0.51849818 -0.30025819 -0.40805522
0.091770925 0.66422004 -0.73356813
-0.19713476 -0.93646103 0.14228696
0.1023934 -0.97865349 -0.13305494
-0.16879338 -0.62539679 0.73039675
-0.56689781 0.27190736 -0.18739069
-0.25029773 -0.39565334 -0.82042372
-0.438014 -0.28233343 -0.62475908
0.43509364 -0.68350714 -0.11208345
0.17999634 -0.40869293 -0.86453706
0.28436205 -0.76958215 0.43670434
0.0052203787 -0.87761933 -0.48558372
-0.54340506 0.038047973 -0.42825186
-0.44231766 -0.15625978 0.65949041
0.44769126 0.52505553 -0.4131695
-0.32576641 0.80358142 -0.24874875
-0.56126994 -0.14292467 0.32893136
-0.55361873 0.38881579 0.051489588
0.49749422 0.22069639 -0.51967293
0.16980475 -0.81091863 -0.51966637
0.57508177 -0.23610877 0.1788035
0.17999634 0.40741751 0.86453706
0.37648159 -0.72390205 0.30024216
-0.25029773 -0.39565334 0.82042372
-0.4371295 -0.6823287 0.096470997
0.034994096 -0.92944765 -0.37249157
0.48275614 -0.24938589 -0.54331625
-0.3606157 -0.63122499 0.49682194
0.50137794 -0.098565958 -0.54403222
0.12862977 -0.17546204 -0.96289843
-0.4346455 -0.68350714 -0.11208345
-0.44652355 -0.6083743 -0.28393945
0.25735369 0.25605488 -0.87002981
-0.5865854 -0.13369265 0.17028224
0.38312 0.52370352 0.56782395
0.35355076 -0.44352949 -0.6790874
0.31669375 -0.092232615 0.84867179
0.095302694 0.45086965 0.88074046
0.091770925 -0.66549546 0.73356813
0.13504699 0.06533353 -0.97436446
0.1665453 -0.046567377 -0.9608106
-0.14918089 -0.75697303 0.60834408
-0.28899145 0.73803192 0.47544694
0.24685834 -0.12424252 -0.90554076
0.45080337 0.58633673 0.30734301
0.35508025 -0.094589181 -0.80502057
0.56259161 0.25336236 0.25276217
-0.04462181 0.98870611 0.14229548
-0.3335903 -0.089669995 0.82850432
-0.37627926 -0.42902949 -0.65451306
0.50047356 -0.52644747 0.18427248
0.56171805 0.14164925 -0.32893136
0.058982395 -0.54466611 0.83525884
0.023435464 0.42761415 -0.90604854
0.50380951 -0.46251532 -0.29489836
-0.3606157 0.62994957 0.49682191
-0.0057618795 0.82428092 -0.56982744
0.44276577 0.15498437 -0.65949041
-0.53174353 0.40807477 -0.22898121
0.14150625 0.17816588 -0.95809627
0.24685834 0.1229671 0.90554076
-0.59338224 0.14165777 0.074743107
-0.44724315 0.52505553 -0.4131695
-0.13404028 -0.7758106 -0.59545565
-0.20106369 -0.94437706 0.0048337993
-0.26647222 0.12615016 -0.88835216
-0.49768472 0.46343738 0.31556657
-0.050134972 -0.99997568 -0.013320127
-0.046329688 -0.73407346 -0.67829067
-0.3358314 -0.016150545 -0.83096987
-0.49704611 -0.22197181 0.51967293
0.55406684 0.38881579 0.051489595
-0.54435307 0.11404164 0.40767327
-0.438014 0.28105801 0.62475908
0.51704001 0.48868027 0.15148544
-0.28899145 -0.73930734 -0.47544694
-0.046329688 0.73279804 0.67829067
-0.069547229 -0.91635203 -0.38798055
-0.37603348 0.72262663 -0.30024216
0.42034268 -0.32547185 -0.64081365
-0.50092983 -0.098565966 0.54403222
0.22806655 0.68813175 0.62165451
0.32621452 -0.80485684 0.24874875
-0.45958868 0.405595 -0.50361526
-0.26647222 -0.12742558 0.88835216
-0.54250133 -0.42045733 0.1014578
-0.32009202 0.28277236 -0.80103225
0.4868778 0.58816475 0.010399852
0.19185071 -0.80846351 0.49891505
0.54726219 0.017969543 -0.41898045
-0.14442042 0.31030881 -0.92120665
0.085601345 -0.075380817 -0.98934382
0.28436205 0.76830673 -0.43670434
0.23941343 0.056573413 -0.91873008
0.22806655 -0.68940717 -0.62165451
-0.49768472 -0.4647128 0.31556657
-0.04101089 0.26195356 -0.96506351
0.36106381 0.62994957 0.49682191
0.079918176 -0.96072251 -0.25838375
0.023435464 -0.42888957 0.90604854
-0.15180676 -0.93641317 0.25389624
0.11134606 0.76060981 0.62517589
0.028197393 0.24770488 0.97099841
-0.058534287 0.54339069 0.83525884
0.069796719 0.89062834 0.44533479
-0.1019453 -0.97865349 0.13305494
-0.58067304 -0.24935825 0.066293538
0.37043285 0.75960362 -0.21532691
0.00030789687 0.63956189 0.77121639
-0.010940298 0.41834274 0.91173023
0.39893213 -0.6572184 0.36157972
-0.49768472 0.46343738 -0.31556657
-0.066790298 -0.93553013 0.34299028
-0.50471437 0.50157011 0.20780842
-0.15704323 -0.96800321 -0.0482319
0.53935379 0.40939334 -0.17326888
-0.32009202 -0.28404778 0.80103225
-0.26854208 -0.89611471 0.050101772
-0.32619599 0.83461803 -0.097928375
0.51894629 0.29898277 0.40805522
-0.25029773 0.39437792 -0.82042372
-0.2542142 -0.82773697 -0.37617552
0.0083200205 -0.83081436 0.5611366
-0.17954823 0.40741751 -0.86453706
0.54483491 -0.34513944 -0.24833719
0.067692995 0.69195175 0.71710503
-0.058534287 0.54339069 -0.83525884
0.1665453 0.045291957 0.9608106
0.32664409 -0.83589345 0.097928375
0.25074583 0.39437792 -0.82042372
-0.31037286 -0.24260221 -0.82441336
0.52271742 0.49473405 -0.023165908
0.35599989 -0.27252838 0.76263976
-0.090667151 -0.86199796 -0.48931751
-0.38842246 -0.75804448 0.10199144
0.39893213 0.65594298 0.36157972
0.13973105 -0.29771152 -0.92788798
-0.04101089 -0.26322898 0.96506351
-0.45958868 -0.40687042 -0.50361526
0.010310804 -0.73673201 0.68037176
-0.37627926 0.42775407 0.65451306
0.12862977 0.17418662 0.96289843
0.36106381 -0.63122499 0.49682191
-0.55051905 0.23124635 -0.3291207
-0.17954823 -0.40869293 0.86453706
0.26638415 -0.50662273 0.74455976
0.34317544 0.37992057 0.72940153
-0.32619599 -0.83589345 0.097928375
0.21332914 -0.24962053 -0.90353608
0.57881451 -0.094010718 0.255548
0.37648159 0.72262663 0.30024213
0.60067248 -0.027718138 0.06639307
0.42034268 -0.32547185 0.64081365
-0.40675035 -0.078227289 0.73343575
-0.046329692 0.73279804 -0.67829067
0.26454943 0.86836714 0.2365264
0.26454946 -0.86964256 0.2365264
0.59383035 -0.14293319 -0.074743107
0.12631056 -0.77422607 0.60283983
0.32033464 0.05611157 -0.84744203
-0.085148118 0.32829365 0.93582332
-0.07960891 -0.17091995 -0.97801578
-0.067690961 0.90037423 -0.42455736
-0.047636766 -0.8365804 0.54717189
-0.36998475 0.75960362 0.21532691
-0.26593605 -0.50662273 -0.74455976
-0.16879338 0.62412137 0.73039675
0.00030789687 -0.64083731 -0.77121639
-0.49704611 -0.22197181 -0.51967287
0.37828851 -0.69545025 -0.35549712
0.43757761 -0.6823287 0.096470997
0.21332914 0.24834511 0.90353608
0.25717518 0.90541083 0.038685683
-0.1914026 -0.80846351 0.49891505
-0.23735298 0.0069932076 0.92009056
0.38312 -0.52497894 0.56782395
-0.34272733 0.37992057 0.72940153
-0.068583548 -0.40831098 0.90762854
0.34317544 0.37992057 -0.72940153
0.58112115 0.24808283 -0.066293538
-0.54189801 0.35453671 0.24898165
0.37672737 0.42775407 0.65451306
-0.036673993 -0.98742741 0.16875824
0.36153805 0.23733142 -0.7664181
0.52866822 -0.15910169 -0.45150796
0.040506076 -1.0008564 2.8756322e-09
0.51804018 0.42560527 -0.28397247
-0.1914026 0.80718809 0.49891505
-0.38878891 0.25410643 0.71965617
-0.092910059 0.81955975 -0.55379802
0.46121511 0.61179847 0.20135419
0.01647231 -0.06703078 1.0007473
0.49749422 0.22069639 0.51967287
0.37672737 0.42775404 -0.65451306
0.59860802 0.017266473 -0.098594956
-0.093149193 0.6588527 0.73756951
-0.57751501 0.21337181 0.17482433
-0.44652355 0.60709888 0.28393945
-0.2542142 0.82646155 0.37617552
0.21376318 0.90205288 -0.2546376
0.18497586 -0.87548596 0.38212255
-0.22447847 0.26011381 -0.89144731
0.58703351 0.13241723 0.17028224
-0.28241536 0.11123694 0.87780768
-0.10467054 0.96226072 0.21400952
-0.55361873 -0.39009121 -0.051489588
-0.55249995 -0.24171181 -0.31094652
0.40719846 0.076951861 -0.73343575
-0.26593605 -0.50662273 0.74455976
-0.54250133 0.41918191 -0.1014578
-0.41989458 -0.32547185 0.64081365
-0.26410133 -0.86964256 0.2365264
0.23907752 -0.90922016 0.14205797
-0.57881403 -0.069362618 -0.26259127
-0.058534287 -0.54466611 -0.83525884
0.094034858 0.8559444 -0.49636742
-0.46250579 -0.00077744952 -0.6401996
-0.093149193 -0.66012812 -0.73756951
-0.45958868 -0.40687042 0.50361526
0.51894629 -0.30025819 -0.40805522
0.36106381 0.62994957 -0.49682191
0.13504699 -0.06660895 0.97436446
-0.18452775 -0.87548596 0.38212255
-0.4371295 0.68105328 -0.096470997
0.37043285 -0.76087904 -0.21532692
0.37278819 -0.21738385 -0.7554844
-0.095875196 0.027043764 -0.98924184
-0.093149185 -0.66012812 0.73756951
-0.043003999 0.83808857 0.54412943
0.22806655 -0.68940717 0.62165451
0.44073594 0.67817318 0.054630455
0.51894629 -0.30025816 0.40805522
0.087981164 0.95174056 -0.27650103
-0.54340506 -0.039323393 0.42825186
0.05624786 -0.25618571 0.96431744
-0.15290701 0.96801353 0.052765623
0.44769126 0.52505553 0.4131695
-0.19701824 -0.91812694 -0.23099832
-0.59892815 -0.041627258 0.084207825
-0.050300643 0.9979493 -0.040989548
-0.14252035 0.93524289 -0.27044716
0.56175244 0.26980945 -0.23790734
-0.5783664 0.092735298 -0.255548
0.067692995 -0.69322717 -0.71710503
-0.43991682 0.15194042 0.66485775
0.00030789836 -0.64083731 0.77121639
0.50137794 0.097290546 -0.54403222
0.11134606 -0.76188523 -0.62517589
-0.11065517 -0.94747376 -0.2705293
0.26638415 0.50534731 -0.74455976
-0.51849818 0.29898277 -0.40805522
0.3566052 0.80471015 -0.075066194
-0.35310265 0.44225407 -0.6790874
0.22806655 0.68813175 -0.62165451
-0.17267269 0.162302 0.94595993
0.15777881 0.9644258 -0.068724908
0.49749422 -0.22197181 0.51967287
-0.39848402 -0.65721846 0.36157972
0.48695499 0.56748539 -0.15398267
-0.44231766 0.15498435 -0.65949041
0.54480118 0.11404163 0.40767327
0.55406684 -0.39009121 0.051489592
0.29459101 -0.61736631 -0.6192857
0.10292109 -0.85121906 0.50097805
0.46003678 0.405595 0.50361526
-0.03955207 0.96752411 -0.24872054
-0.07960891 -0.17091995 0.97801578
0.44276577 0.15498435 0.65949041
-0.39848402 0.65594304 -0.36157972
-0.027333744 -0.96144831 -0.27720201
0.28436205 -0.76958215 -0.43670434
-0.35310265 -0.44352949 0.6790874
-0.26593605 0.50534731 -0.74455976
0.45486945 -0.0050272569 0.65697861
0.149629 0.75569761 -0.60834408
-0.58989096 0.11131272 -0.15918274
-0.1019453 0.97737807 -0.13305494
-0.53174353 -0.40935019 0.22898121
-0.027333746 0.96017289 0.27720201
0.51804018 0.42560527 0.28397247
0.44697165 -0.6083743 0.28393945
-0.44724315 -0.52633095 -0.4131695
-0.38267189 0.52370352 0.56782395
-0.56130433 -0.27108487 0.23790734
0.59654874 0.12392993 0.0066557452
-0.34272733 -0.38119599 -0.72940153
0.17999634 -0.40869293 0.86453706
-0.18452775 0.87421054 -0.38212255
-0.027425667 -0.9955765 -0.11941253
0.058982395 -0.54466611 -0.83525884
0.58484274 -0.22534259 0.065971226
-0.22447847 -0.26138923 0.89144731
0.039806791 0.97372675 0.22470488
-0.31037286 0.24132679 0.82441336
-0.44652355 0.60709888 -0.28393945
0.44769126 -0.52633095 0.4131695
-0.41989458 0.32419643 -0.64081365
0.51804018 -0.42688069 0.28397247
-0.1914026 -0.80846351 -0.49891505
-0.4881992 0.56965554 -0.13269728
-0.11578785 -0.97083628 -0.15575916
0.33336401 0.085308112 0.82955986
-0.38842246 0.75676906 -0.10199144
0.16924149 0.62412137 -0.73039675
-0.38267189 -0.52497894 0.56782401
-0.46250579 -0.00049797067 0.6401996
0.13302457 0.51903504 -0.82878369
0.13253631 -0.97803235 -1.4462354e-09
0.25074583 0.39437792 0.82042372
-0.58096671 0.052127913 0.25521845
0.085601345 0.074105397 0.98934382
-0.49788195 0.56049889 0.013493275
-0.0060158591 -0.81172729 -0.58880246
0.29459101 0.61609089 0.6192857
-0.2941429 0.61609089 0.6192857
-0.14967842 0.90662867 0.34561104
-0.14900829 -0.066931263 -0.96816182
-0.29179677 -0.84433293 -0.23684761
0.11265846 0.94456542 0.27254507
0.37617031 -0.076026477 0.77799577
-0.3335903 0.088394575 -0.82850432
-0.38267189 -0.52497894 -0.56782395
0.25074583 -0.39565334 0.82042372
0.38887057 -0.75804448 0.10199144
-0.36998475 -0.76087904 -0.21532691
-0.18939143 -0.26778916 -0.91424108
-0.3778404 0.69417483 0.35549712
-0.068583548 0.40703556 -0.90762854
-0.28391394 0.76830673 -0.43670434
-0.17267269 -0.16357742 -0.94595993
0.44036493 -0.15321584 -0.66485775
0.58703351 0.13241723 -0.17028224
-0.010518456 0.097957246 0.99730659
0.49457115 -0.56946963 -0.029528169
0.15218082 -0.96282786 0.11856313
0.05624786 0.25491029 -0.96431744
0.29387116 -0.84303743 -0.23618293
0.26638412 -0.50662273 -0.74455976
0.38996923 0.094328471 0.75884265
0.51894629 0.29898277 -0.40805522
0.57926214 0.068087198 0.26259127
0.083317071 -0.86725426 -0.4830946
0.066822089 0.75736523 -0.64696521
-0.14900829 0.065655842 0.96816182
0.058982395 0.54339069 -0.83525884
-0.19701824 0.91685152 0.23099832
0.074066825 -0.95770979 0.27487335
0.50345981 -0.54476714 0.072046757
-0.13404028 0.77453518 0.59545565
-0.5762623 0.2765643 0.045929667
-0.17954823 -0.40869293 -0.86453706
-0.49375853 0.55939394 0.1199922
0.44036493 -0.15321583 0.66485775
-0.058534287 -0.54466611 0.83525884
0.32664409 0.83461803 0.097928375
0.44769126 -0.52633095 -0.4131695
-0.43991682 -0.15321584 -0.66485775
-0.3606157 0.62994957 -0.49682194
-0.13257647 -0.52031046 -0.82878369
-0.50092983 -0.098565966 -0.54403222
-0.45958868 0.405595 0.50361526
-0.50092983 0.097290546 0.54403222
-0.16935664 0.80964321 -0.51966637
0.44697165 -0.6083743 -0.28393945
0.48695499 -0.56876081 -0.15398265
0.55096716 -0.23252179 0.3291207
-0.4346455 0.68223172 0.11208345
-0.22761844 -0.68940717 -0.62165451
0.058982395 0.54339069 0.83525884
0.53425932 -0.44621617 -0.11485875
-0.095875196 -0.028319184 0.98924184
-0.51849818 0.29898277 0.40805522
0.23941343 -0.057848834 0.91873008
0.5828231 -0.047259942 -0.24834259
-0.35615709 0.80471015 0.075066194
-0.22761844 -0.68940717 0.62165451
0.15355286 0.96367973 0.093373008
0.29459101 0.61609089 -0.6192857
0.43509361 0.68223172 -0.11208345
0.55695683 -0.23314936 -0.29707381
-0.57120293 -0.27713874 -0.14626186
-0.13257647 0.51903504 -0.82878369
0.28436205 0.76830673 0.43670434
0.17635229 -0.92377365 0.25343102
-0.13257647 0.51903504 0.82878369
0.01647231 0.06575536 -1.0007473
0.46003678 -0.40687045 -0.50361526
-0.38795507 0.11035901 0.75800294
0.00030789836 0.63956189 -0.77121639
-0.44724315 0.52505553 0.4131695
0.19185071 0.80718809 -0.49891505
-0.3778404 -0.69545025 -0.35549712
0.29921046 0.24887408 0.83235723
0.020166177 0.98189878 -0.19138901
-0.38267189 0.52370352 -0.56782401
3 263 347 53
3 142 58 77
3 51 324 118
3 135 469 429
3 385 14 456
3 231 469 135
3 173 507 400
3 383 357 511
3 457 136 65
3 475 512 180
3 2 295 255
3 144 337 504
3 295 217 255
3 123 15 327
3 101 106 199
3 345 159 55
3 398 415 413
3 409 2 115
3 58 142 66
3 316 305 433
3 408 103 275
3 342 287 481
3 294 306 411
3 100 477 130
3 198 479 351
3 341 429 484
3 59 65 311
3 256 399 51
3 441 200 246
3 191 306 258
3 359 233 297
3 107 90 390
3 75 194 243
3 264 426 510
3 142 77 148
3 224 356 57
3 135 15 467
3 212 137 365
3 53 293 39
3 217 295 471
3 252 265 61
3 257 240 276
3 240 257 281
3 436 93 67
3 345 9 122
3 268 308 33
3 406 366 387
3 170 471 363
3 171 462 424
3 103 408 379
3 206 276 381
3 242 172 337
3 393 83 15
3 494 290 373
3 19 46 278
3 226 313 221
3 227 220 155
3 477 474 286
3 201 84 368
3 37 78 91
3 130 261 84
3 42 64 248
3 159 122 493
3 361 17 365
3 428 309 339
3 143 195 129
3 55 159 94
3 37 476 78
3 388 287 454
3 117 93 222
3 263 35 104
3 422 111 389
3 78 476 468
3 93 117 500
3 362 505 306
3 389 234 328
3 371 421 392
3 317 88 97
3 33 472 29
3 84 100 130
3 30 435 110
3 238 204 390
3 141 234 326
3 283 167 403
3 241 445 208
3 77 58 203
3 510 14 264
3 349 41 415
3 359 297 449
3 509 70 193
3 246 87 85
3 280 307 480
3 216 143 71
3 251 38 416
3 342 126 85
3 386 180 412
3 21 311 65
3 274 200 128
3 307 74 480
3 259 428 245
3 136 21 65
3 256 286 125
3 461 292 115
3 501 274 318
3 431 199 106
3 336 213 5
3 373 113 27
3 437 419 154
3 86 300 303
3 410 436 79
3 476 37 332
3 241 208 319
3 249 205 192
3 301 175 325
3 35 404 47
3 181 186 430
3 445 499 244
3 165 396 410
3 178 490 154
3 237 382 310
3 98 208 214
3 379 465 451
3 478 400 507
3 233 249 189
3 60 208 98
3 60 98 344
3 394 353 357
3 455 34 52
3 427 190 12
3 12 298 314
3 200 441 140
3 242 337 497
3 415 41 413
3 96 91 279
3 18 7 490
3 232 223 120
3 403 124 283
3 7 440 250
3 369 97 88
3 67 494 79
3 63 378 11
3 474 334 42
3 156 104 35
3 73 367 247
3 301 150 296
3 423 198 131
3 23 216 71
3 1 11 391
3 26 485 193
3 156 170 363
3 193 239 509
3 492 420 341
3 215 268 500
3 453 171 62
3 368 176 229
3 119 462 506
3 293 53 260
3 438 99 204
3 460 392 119
3 91 96 209
3 417 341 412
3 110 232 182
3 294 95 116
3 114 491 275
3 204 370 390
3 509 435 442
3 47 7 18
3 496 225 369
3 334 100 377
3 42 334 44
3 256 167 439
3 477 334 474
3 61 22 252
3 336 328 188
3 49 28 333
3 383 358 394
3 236 492 56
3 279 91 78
3 124 403 248
3 495 311 367
3 230 340 218
3 475 446 40
3 195 38 251
3 67 290 494
3 108 425 121
3 386 412 196
3 215 431 152
3 482 126 481
3 341 417 429
3 371 508 210
3 22 61 54
3 495 338 59
3 35 170 156
3 177 453 62
3 109 134 401
3 62 150 177
3 489 298 12
3 132 59 338
3 502 227 221
3 470 250 270
3 432 116 50
3 262 326 9
3 373 290 88
3 496 369 348
3 249 192 189
3 301 21 175
3 292 372 321
3 202 409 115
3 304 132 10
3 155 139 101
3 112 91 254
3 138 415 379
3 409 234 141
3 434 8 60
3 272 506 74
3 451 126 482
3 135 429 327
3 141 326 262
3 254 127 112
3 9 345 471
3 263 404 35
3 117 222 219
3 37 91 112
3 480 405 280
3 432 50 160
3 112 407 37
3 484 492 341
3 176 368 261
3 69 4 149
3 400 258 432
3 401 224 203
3 466 284 313
3 57 80 498
3 62 73 150
3 44 377 99
3 310 382 92
3 410 27 165
3 20 466 346
3 299 431 106
3 293 270 39
3 112 127 17
3 265 30 235
3 358 383 280
3 499 390 90
3 502 313 284
3 271 166 48
3 181 335 186
3 466 313 194
3 74 307 272
3 259 220 428
3 333 508 392
3 479 190 351
3 355 366 418
3 9 326 122
3 159 493 291
3 247 150 73
3 113 317 350
3 206 128 347
3 144 146 302
3 342 454 287
3 3 448 163
3 20 322 433
3 374 41 349
3 147 161 266
3 179 467 15
3 354 397 162
3 146 448 3
3 350 383 511
3 293 260 413
3 266 254 147
3 508 16 210
3 135 298 231
3 114 275 103
3 475 386 196
3 369 472 33
3 154 7 250
3 463 433 322
3 91 147 254
3 273 29 472
3 420 236 133
3 125 286 474
3 181 416 485
3 29 500 268
3 253 268 215
3 106 139 426
3 500 273 93
3 201 414 84
3 191 0 362
3 154 490 7
3 13 485 283
3 358 405 68
3 227 278 220
3 260 140 228
3 136 175 21
3 354 215 152
3 410 76 222
3 19 321 372
3 68 446 133
3 371 495 367
3 483 349 415
3 354 382 397
3 197 448 144
3 179 314 467
3 207 491 302
3 163 52 161
3 189 297 233
3 128 140 260
3 300 218 223
3 278 502 43
3 355 435 239
3 227 502 278
3 158 161 147
3 55 257 345
3 423 131 271
3 243 194 226
3 220 450 428
3 297 189 82
3 470 270 374
3 484 315 282
3 213 58 66
3 211 157 177
3 437 250 470
3 260 228 413
3 367 421 371
3 342 481 126
3 185 406 303
3 365 137 459
3 55 281 257
3 216 387 143
3 309 18 339
3 458 267 269
3 63 1 374
3 51 118 256
3 97 225 36
3 264 14 299
3 195 143 387
3 161 211 277
3 145 5 375
3 277 163 161
3 272 460 506
3 225 10 36
3 232 355 418
3 151 356 224
3 167 256 125
3 10 376 304
3 146 144 448
3 474 42 32
3 15 135 327
3 128 260 53
3 446 480 107
3 164 378 458
3 230 105 281
3 39 270 250
3 273 472 290
3 507 173 444
3 218 300 230
3 360 130 331
3 457 304 359
3 280 405 358
3 424 462 119
3 266 161 52
3 493 122 326
3 289 72 259
3 46 220 278
3 85 108 454
3 323 69 77
3 119 392 421
3 414 512 370
3 401 134 151
3 289 139 72
3 161 158 211
3 353 394 6
3 274 330 246
3 155 486 227
3 329 120 218
3 226 194 313
3 289 426 139
3 102 197 504
3 313 502 221
3 258 478 191
3 101 486 155
3 358 6 394
3 208 445 214
3 382 354 152
3 462 244 506
3 318 81 464
3 334 377 44
3 457 359 169
3 181 13 335
3 149 148 69
3 143 129 459
3 27 113 511
3 101 139 106
3 362 423 505
3 145 422 5
3 32 42 248
3 108 121 23
3 310 378 237
3 23 121 216
3 353 25 463
3 370 204 414
3 373 88 317
3 147 91 209
3 419 456 510
3 503 344 98
3 183 60 8
3 308 348 33
3 191 362 306
3 26 283 485
3 140 128 200
3 456 437 391
3 219 199 117
3 245 178 259
3 340 94 291
3 478 489 0
3 427 351 190
3 103 487 242
3 19 411 321
3 343 197 52
3 477 24 130
3 399 149 51
3 261 368 84
3 487 451 482
3 46 461 488
3 311 21 301
3 503 209 96
3 421 367 424
3 325 163 277
3 492 31 25
3 274 246 200
3 326 111 493
3 385 391 11
3 402 312 449
3 121 303 406
3 374 1 470
3 378 63 458
3 22 54 145
3 95 294 411
3 114 103 242
3 397 382 237
3 446 68 405
3 147 209 158
3 283 124 468
3 174 333 460
3 132 65 59
3 269 275 312
3 249 376 205
3 221 227 486
3 109 395 213
3 266 127 254
3 205 308 192
3 348 308 205
3 440 404 263
3 30 265 252
3 237 164 397
3 159 291 94
3 85 441 246
3 311 495 59
3 38 366 355
3 72 139 155
3 445 171 214
3 196 133 446
3 330 501 452
3 235 120 329
3 425 108 87
3 177 150 211
3 42 187 64
3 288 451 465
3 184 489 478
3 309 384 255
3 396 322 20
3 133 196 420
3 438 183 187
3 323 77 203
3 437 456 419
3 451 487 379
3 371 210 495
3 464 300 86
3 109 213 336
3 229 417 412
3 160 316 444
3 369 88 290
3 324 24 118
3 315 444 282
3 266 34 127
3 466 194 346
3 70 26 193
3 345 363 471
3 456 391 385
3 424 73 62
3 374 483 63
3 141 262 409
3 218 340 329
3 442 435 30
3 154 419 178
3 511 113 350
3 115 2 384
3 430 365 459
3 181 485 13
3 153 455 52
3 44 438 187
3 209 503 157
3 328 336 422
3 377 100 84
3 439 167 26
3 424 367 73
3 217 471 170
3 331 324 80
3 195 366 38
3 478 0 191
3 350 317 28
3 181 251 416
3 312 491 449
3 302 337 144
3 478 507 184
3 238 390 241
3 197 144 504
3 390 40 107
3 393 360 331
3 224 323 203
3 317 16 28
3 503 453 177
3 499 445 241
3 86 425 452
3 512 201 180
3 436 410 222
3 297 82 402
3 406 185 232
3 440 263 250
3 480 74 107
3 301 325 277
3 328 234 45
3 466 50 284
3 498 323 224
3 296 150 247
3 15 83 179
3 320 164 458
3 63 11 1
3 361 186 285
3 74 90 107
3 202 234 409
3 188 198 351
3 44 187 42
3 466 20 305
3 149 509 442
3 507 315 184
3 393 123 261
3 306 294 258
3 168 288 465
3 458 63 267
3 234 202 166
3 81 381 240
3 407 285 332
3 165 322 396
3 332 37 407
3 372 46 19
3 68 236 56
3 456 14 510
3 105 230 464
3 238 241 319
3 285 186 335
3 173 400 432
3 429 417 327
3 472 369 290
3 256 118 286
3 157 158 209
3 269 312 402
3 146 3 364
3 329 54 61
3 331 83 393
3 497 337 302
3 308 268 253
3 222 93 436
3 390 370 40
3 378 310 11
3 187 183 8
3 335 476 332
3 412 180 229
3 415 398 168
3 104 276 347
3 353 56 25
3 285 335 332
3 3 175 364
3 105 464 81
3 376 249 233
3 9 295 262
3 423 479 198
3 512 40 370
3 30 252 142
3 71 459 137
3 274 501 330
3 496 376 10
3 327 176 123
3 343 52 163
3 145 375 22
3 30 110 235
3 125 32 167
3 333 392 460
3 467 314 135
3 364 207 146
3 17 212 365
3 126 288 85
3 225 97 369
3 479 362 0
3 353 463 322
3 373 317 113
3 125 474 32
3 352 217 47
3 111 54 493
3 28 49 350
3 369 33 348
3 292 461 372
3 384 2 255
3 282 31 492
3 75 243 219
3 505 48 321
3 205 376 496
3 394 357 383
3 469 231 315
3 388 89 287
3 274 128 318
3 452 87 330
3 251 430 129
3 323 51 4
3 380 153 102
3 304 233 359
3 171 445 244
3 307 174 272
3 108 85 87
3 275 269 408
3 486 226 221
3 183 204 319
3 476 335 13
3 303 425 86
3 70 399 439
3 479 0 190
3 228 140 398
3 54 291 493
3 129 195 251
3 210 97 36
3 385 310 92
3 430 186 361
3 403 32 248
3 418 406 232
3 450 220 46
3 237 378 164
3 287 89 473
3 172 473 504
3 234 389 326
3 344 434 60
3 311 296 367
3 250 437 154
3 167 283 26
3 270 41 374
3 68 6 358
3 430 361 365
3 375 5 66
3 166 45 234
3 207 169 491
3 217 170 35
3 347 263 104
3 416 239 193
3 315 484 469
3 43 95 19
3 502 284 116
3 163 325 3
3 466 305 50
3 341 196 412
3 193 485 416
3 68 133 236
3 131 198 188
3 318 206 381
3 473 481 287
3 319 204 238
3 431 215 500
3 84 414 377
3 116 258 294
3 82 320 402
3 379 408 138
3 115 384 488
3 508 371 392
3 505 423 271
3 355 110 435
3 239 416 38
3 281 94 230
3 256 439 399
3 262 2 409
3 105 81 240
3 116 95 43
3 204 183 438
3 397 192 308
3 160 50 305
3 54 340 291
3 387 366 195
3 76 75 222
3 455 17 127
3 172 481 473
3 443 124 248
3 255 217 352
3 484 282 492
3 339 245 428
3 71 143 459
3 178 245 490
3 347 276 206
3 407 17 361
3 242 487 172
3 216 406 387
3 348 205 496
3 199 219 101
3 383 49 280
3 10 225 496
3 406 216 121
3 427 151 134
3 290 67 273
3 293 413 41
3 166 271 45
3 280 174 307
3 508 333 28
3 18 352 47
3 407 361 285
3 318 381 81
3 308 162 397
3 83 57 356
3 76 20 346
3 171 244 462
3 331 80 83
3 295 9 471
3 31 444 316
3 224 401 151
3 368 229 201
3 148 149 442
3 49 174 280
3 136 207 364
3 463 31 316
3 183 319 60
3 417 176 327
3 296 311 301
3 132 304 65
3 214 453 503
3 388 454 23
3 424 62 171
3 334 477 100
3 199 431 500
3 194 75 346
3 79 27 410
3 446 405 480
3 509 149 399
3 309 450 488
3 271 131 45
3 257 363 345
3 464 230 300
3 302 491 497
3 373 27 79
3 440 7 404
3 309 352 18
3 476 13 283
3 17 407 112
3 162 253 354
3 196 341 420
3 137 388 71
3 197 153 52
3 277 211 150
3 222 75 219
3 488 450 46
3 134 109 188
3 92 299 14
3 35 47 217
3 214 171 453
3 262 295 2
3 242 497 114
3 475 180 386
3 397 164 189
3 29 268 33
3 329 265 235
3 19 95 411
3 269 320 458
3 129 430 459
3 80 324 498
3 465 379 168
3 380 102 89
3 388 212 380
3 276 240 381
3 489 190 0
3 241 390 499
3 48 292 321
3 354 253 215
3 65 304 457
3 299 92 382
3 328 422 389
3 444 315 507
3 374 349 483
3 359 449 169
3 74 506 244
3 233 304 376
3 463 25 31
3 104 156 276
3 142 22 66
3 271 48 505
3 118 24 286
3 380 455 153
3 210 317 97
3 270 293 41
3 483 415 138
3 343 448 197
3 353 165 357
3 121 425 303
3 441 85 288
3 422 145 111
3 220 259 72
3 323 498 51
3 131 328 45
3 449 297 402
3 443 64 447
3 414 201 512
3 202 115 292
3 338 210 36
3 492 25 56
3 257 276 156
3 175 136 364
3 269 402 320
3 460 119 506
3 331 130 24
3 299 152 431
3 491 114 497
3 223 232 185
3 212 455 380
3 232 110 355
3 10 132 36
3 447 279 443
3 477 286 24
3 169 136 457
3 443 279 78
3 498 224 57
3 20 433 305
3 138 267 483
3 218 120 223
3 451 288 126
3 166 202 48
3 105 240 281
3 470 1 391
3 207 136 169
3 173 432 160
3 210 16 317
3 455 212 17
3 288 140 441
3 74 499 90
3 449 491 169
3 512 475 40
3 331 24 324
3 426 289 510
3 388 380 89
3 189 164 82
3 3 325 175
3 123 176 261
3 435 509 239
3 66 5 213
3 444 173 160
3 263 53 39
3 87 452 425
3 464 86 452
3 184 231 298
3 281 55 94
3 372 461 46
3 182 232 120
3 15 123 393
3 261 130 360
3 492 236 420
3 503 98 214
3 486 243 226
3 48 202 292
3 302 146 207
3 168 398 288
3 4 51 149
3 267 63 483
3 429 469 484
3 39 250 263
3 468 124 443
3 182 235 110
3 499 74 244
3 414 204 99
3 52 34 266
3 350 49 383
3 119 421 424
3 306 505 411
3 490 339 18
3 487 103 379
3 422 336 5
3 289 178 510
3 468 443 78
3 342 85 454
3 495 210 338
3 122 159 345
3 12 190 489
3 438 44 99
3 165 27 357
3 309 428 450
3 279 434 344
3 79 436 67
3 344 96 279
3 261 360 393
3 47 404 7
3 329 61 265
3 49 333 174
3 178 419 510
3 134 351 427
3 188 328 131
3 70 439 26
3 168 379 415
3 468 476 283
3 79 494 373
3 92 14 385
3 43 502 116
3 391 437 470
3 486 101 243
3 56 6 68
3 258 116 432
3 145 54 111
3 498 324 51
3 503 177 157
3 83 80 57
3 6 56 353
3 230 94 340
3 77 69 148
3 300 223 185
3 120 235 182
3 399 70 509
3 382 152 299
3 140 288 398
3 58 395 203
3 196 446 475
3 36 132 338
3 102 473 89
3 395 109 401
3 164 320 82
3 71 388 23
3 151 427 356
3 264 106 426
3 503 96 344
3 367 296 247
3 203 395 401
3 309 488 384
3 322 165 353
3 137 212 388
3 4 69 323
3 239 38 355
3 174 460 272
3 148 30 142
3 179 83 356
3 185 303 300
3 318 464 501
3 219 243 101
3 504 337 172
3 158 157 211
3 231 184 315
3 447 434 279
3 464 452 501
3 326 389 111
3 54 329 340
3 375 66 22
3 310 385 11
3 199 500 117
3 155 220 72
3 299 106 264
3 508 28 16
3 444 31 282
3 58 213 395
3 128 206 318
3 67 93 273
3 273 500 29
3 150 301 277
3 192 397 189
3 298 489 184
3 257 156 363
3 8 447 64
3 336 188 109
3 284 50 116
3 491 312 275
3 427 179 356
3 128 53 347
3 413 228 398
3 148 442 30
3 40 446 107
3 245 339 490
3 351 134 188
3 487 482 172
3 505 321 411
3 319 208 60
3 269 267 138
3 102 153 197
3 22 142 252
3 8 434 447
3 43 19 278
3 201 229 180
3 443 248 64
3 314 179 427
3 479 423 362
3 23 454 108
3 259 178 289
3 481 172 482
3 251 181 430
3 427 12 314
3 473 102 504
3 255 352 309
3 269 138 408
3 377 414 99
3 27 511 357
3 20 76 396
3 127 34 455
3 187 8 64
3 406 418 366
3 488 461 115
3 343 163 448
3 76 410 396
3 346 75 76
3 308 253 162
3 478 258 400
3 32 403 167
3 316 433 463
3 305 316 160
3 417 229 176
3 135 314 298
3 87 246 330
